<?xml version="1.0" encoding="utf-8"?>
<!-- Generator: Adobe Illustrator 23.0.6, SVG Export Plug-In . SVG Version: 6.00 Build 0)  -->
<svg version="1.1" id="Слой_1" xmlns="http://www.w3.org/2000/svg" xmlns:xlink="http://www.w3.org/1999/xlink" x="0px" y="0px"
	 viewBox="0 0 165.1 165.1" style="enable-background:new 0 0 165.1 165.1;" xml:space="preserve">
<style type="text/css">
	.st0{clip-path:url(#SVGID_2_);}
</style>
<title>atanastay_brandbook_2019_3-3</title>
<g>
	<defs>
		<rect id="SVGID_1_" x="-586.8" y="-143.1" width="1190.6" height="841.9"/>
	</defs>
	<clipPath id="SVGID_2_">
		<use xlink:href="#SVGID_1_"  style="overflow:visible;"/>
	</clipPath>
	<g class="st0">
		<g>
			<path d="M67.2,7.9c-0.3,0.1-0.7,0.2-1,0.3l-7.1,2.5l7.1,2.5c0.3,0.1,0.7,0.2,1,0.3c0.4-0.4,0.9-1.2,1.2-1.7
				c0.2-0.4,0.5-0.7,0.8-1.1c-0.3-0.4-0.5-0.8-0.8-1.1S67.6,8.3,67.2,7.9"/>
			<path d="M61.1,18.3l-2.5-7.1l-2.5,7.1c-0.1,0.3-0.2,0.7-0.3,1c0.5,0.4,1.2,0.9,1.7,1.2l1.1,0.8c0.4-0.3,0.8-0.6,1.1-0.8
				s1.2-0.8,1.7-1.2C61.3,19,61.2,18.6,61.1,18.3"/>
			<path d="M50.9,8.2c-0.3-0.1-0.7-0.2-1-0.3c-0.4,0.4-0.9,1.2-1.2,1.7s-0.5,0.7-0.8,1.1l0.8,1.1c0.4,0.5,0.8,1.2,1.2,1.7
				c0.3-0.1,0.7-0.2,1-0.3l7.1-2.5L50.9,8.2z"/>
			<path d="M56.1,3.1l2.5,7.1L61.1,3c0.1-0.3,0.2-0.7,0.3-1c-0.5-0.4-1.2-0.9-1.7-1.2S59,0.3,58.6,0l-1.1,0.8
				C57,1.2,56.2,1.7,55.8,2C55.9,2.4,56,2.7,56.1,3.1"/>
		</g>
		<g>
			<path d="M115.2,7.9c-0.3,0.1-0.7,0.2-1,0.3l-7.1,2.5l7.1,2.5c0.3,0.1,0.7,0.2,1,0.3c0.4-0.4,0.9-1.2,1.2-1.7
				c0.2-0.4,0.5-0.7,0.8-1.1c-0.3-0.4-0.5-0.8-0.8-1.1S115.5,8.3,115.2,7.9"/>
			<path d="M109,18.3l-2.5-7.1l-2.5,7.1c-0.1,0.3-0.2,0.7-0.3,1c0.5,0.4,1.2,0.9,1.7,1.2s0.8,0.5,1.1,0.8c0.4-0.3,0.8-0.6,1.1-0.8
				s1.2-0.8,1.7-1.2C109.2,19,109.1,18.6,109,18.3"/>
			<path d="M98.9,8.2c-0.3-0.1-0.7-0.2-1-0.3C97.5,8.3,97,9,96.7,9.6s-0.5,0.7-0.8,1.1c0.3,0.4,0.5,0.8,0.8,1.1
				c0.4,0.5,0.8,1.2,1.2,1.7c0.3-0.1,0.7-0.2,1-0.3l7.1-2.5L98.9,8.2z"/>
			<path d="M104,3.1l2.5,7.1L109,3c0.1-0.3,0.2-0.7,0.3-1c-0.5-0.4-1.2-0.9-1.7-1.2s-0.7-0.5-1.1-0.8l-1.1,0.8
				c-0.5,0.4-1.2,0.9-1.7,1.2C103.8,2.4,103.9,2.7,104,3.1"/>
		</g>
		<g>
			<path d="M19.3,55.8c-0.3,0.1-0.7,0.2-1,0.3l-7.1,2.5l7.1,2.5c0.3,0.1,0.7,0.2,1,0.3c0.4-0.4,0.9-1.2,1.2-1.7
				c0.2-0.4,0.5-0.7,0.8-1.1c-0.3-0.4-0.5-0.8-0.8-1.1C20.2,57,19.7,56.2,19.3,55.8"/>
			<path d="M13.2,66.2l-2.5-7.1l-2.5,7.1c-0.1,0.3-0.2,0.7-0.3,1c0.5,0.4,1.2,0.9,1.7,1.2l1.1,0.8c0.4-0.3,0.8-0.6,1.1-0.8
				s1.2-0.8,1.7-1.2C13.4,66.9,13.3,66.5,13.2,66.2"/>
			<path d="M3,56.1c-0.3-0.1-0.7-0.2-1-0.3c-0.4,0.4-0.9,1.2-1.2,1.7c-0.2,0.4-0.5,0.7-0.8,1.1l0.8,1.1c0.4,0.5,0.8,1.2,1.2,1.7
				c0.3-0.1,0.7-0.2,1-0.3l7.1-2.5L3,56.1z"/>
			<path d="M8.2,51l2.5,7.1l2.5-7.1c0.1-0.3,0.2-0.7,0.3-1c-0.5-0.4-1.2-0.9-1.7-1.2s-0.7-0.5-1.1-0.8l-1.1,0.8
				c-0.5,0.4-1.2,0.9-1.7,1.2C8,50.3,8.1,50.6,8.2,51"/>
		</g>
		<g>
			<path d="M67.2,55.8c-0.3,0.1-0.7,0.2-1,0.3l-7.1,2.5l7.1,2.5c0.3,0.1,0.7,0.2,1,0.3c0.4-0.4,0.9-1.2,1.2-1.7
				c0.2-0.4,0.5-0.7,0.8-1.1c-0.3-0.4-0.5-0.8-0.8-1.1C68.1,57,67.6,56.2,67.2,55.8"/>
			<path d="M61.1,66.2l-2.5-7.1l-2.5,7.1c-0.1,0.3-0.2,0.7-0.3,1c0.5,0.4,1.2,0.9,1.7,1.2l1.1,0.8c0.4-0.3,0.8-0.6,1.1-0.8
				s1.2-0.8,1.7-1.2C61.3,66.9,61.2,66.5,61.1,66.2"/>
			<path d="M50.9,56.1c-0.3-0.1-0.7-0.2-1-0.3c-0.4,0.4-0.9,1.2-1.2,1.7c-0.2,0.4-0.5,0.7-0.8,1.1l0.8,1.1c0.4,0.5,0.8,1.2,1.2,1.7
				c0.3-0.1,0.7-0.2,1-0.3l7.1-2.5L50.9,56.1z"/>
			<path d="M56.1,51l2.5,7.1l2.5-7.1c0.1-0.3,0.2-0.7,0.3-1c-0.5-0.4-1.2-0.9-1.7-1.2s-0.7-0.5-1.1-0.8l-1.1,0.8
				c-0.5,0.4-1.2,0.9-1.7,1.2C55.9,50.3,56,50.6,56.1,51"/>
		</g>
		<g>
			<path d="M115.2,55.8c-0.3,0.1-0.7,0.2-1,0.3l-7.1,2.5l7.1,2.5c0.3,0.1,0.7,0.2,1,0.3c0.4-0.4,0.9-1.2,1.2-1.7
				c0.2-0.4,0.5-0.7,0.8-1.1c-0.3-0.4-0.5-0.8-0.8-1.1C116,57,115.5,56.2,115.2,55.8"/>
			<path d="M109,66.2l-2.5-7.1l-2.5,7.1c-0.1,0.3-0.2,0.7-0.3,1c0.5,0.4,1.2,0.9,1.7,1.2s0.8,0.5,1.1,0.8c0.4-0.3,0.8-0.6,1.1-0.8
				s1.2-0.8,1.7-1.2C109.2,66.9,109.1,66.5,109,66.2"/>
			<path d="M98.9,56.1c-0.3-0.1-0.7-0.2-1-0.3c-0.4,0.4-0.9,1.2-1.2,1.7c-0.2,0.4-0.5,0.7-0.8,1.1c0.3,0.4,0.5,0.8,0.8,1.1
				c0.4,0.5,0.8,1.2,1.2,1.7c0.3-0.1,0.7-0.2,1-0.3l7.1-2.5L98.9,56.1z"/>
			<path d="M104,51l2.5,7.1L109,51c0.1-0.3,0.2-0.7,0.3-1c-0.5-0.4-1.2-0.9-1.7-1.2s-0.7-0.5-1.1-0.8l-1.1,0.8
				c-0.5,0.4-1.2,0.9-1.7,1.2C103.8,50.3,103.9,50.6,104,51"/>
		</g>
		<g>
			<path d="M163.1,55.8c-0.3,0.1-0.7,0.2-1,0.3l-7.1,2.5l7.1,2.5c0.3,0.1,0.7,0.2,1,0.3c0.4-0.4,0.9-1.2,1.2-1.7
				c0.2-0.4,0.5-0.7,0.8-1.1c-0.3-0.4-0.5-0.8-0.8-1.1C163.9,57,163.4,56.2,163.1,55.8"/>
			<path d="M156.9,66.2l-2.5-7.1l-2.5,7.1c-0.1,0.3-0.2,0.7-0.3,1c0.5,0.4,1.2,0.9,1.7,1.2s0.8,0.5,1.1,0.8c0.4-0.3,0.8-0.6,1.1-0.8
				c0.5-0.4,1.2-0.8,1.7-1.2C157.1,66.9,157,66.5,156.9,66.2"/>
			<path d="M146.8,56.1c-0.3-0.1-0.7-0.2-1-0.3c-0.4,0.4-0.9,1.2-1.2,1.7c-0.2,0.4-0.5,0.7-0.8,1.1c0.3,0.4,0.5,0.8,0.8,1.1
				c0.4,0.5,0.8,1.2,1.2,1.7c0.3-0.1,0.7-0.2,1-0.3l7.1-2.5L146.8,56.1z"/>
			<path d="M151.9,51l2.5,7.1l2.5-7.1c0.1-0.3,0.2-0.7,0.3-1c-0.5-0.4-1.2-0.9-1.7-1.2c-0.4-0.2-0.7-0.5-1.1-0.8l-1.1,0.8
				c-0.5,0.4-1.2,0.9-1.7,1.2C151.7,50.3,151.8,50.6,151.9,51"/>
		</g>
		<g>
			<path d="M19.3,103.7c-0.3,0.1-0.7,0.2-1,0.3l-7.1,2.5l7.1,2.5c0.3,0.1,0.7,0.2,1,0.3c0.4-0.4,0.9-1.2,1.2-1.7
				c0.2-0.4,0.5-0.7,0.8-1.1c-0.3-0.4-0.5-0.8-0.8-1.1C20.2,104.9,19.7,104.2,19.3,103.7"/>
			<path d="M13.2,114.1l-2.5-7.1l-2.5,7.1c-0.1,0.3-0.2,0.7-0.3,1c0.5,0.4,1.2,0.9,1.7,1.2l1.1,0.8c0.4-0.3,0.8-0.5,1.1-0.8
				s1.2-0.8,1.7-1.2C13.4,114.8,13.3,114.5,13.2,114.1"/>
			<path d="M3,104c-0.3-0.1-0.7-0.2-1-0.3c-0.4,0.4-0.9,1.2-1.2,1.7c-0.2,0.4-0.5,0.7-0.8,1.1l0.8,1.1c0.4,0.5,0.8,1.2,1.2,1.7
				c0.3-0.1,0.7-0.2,1-0.3l7.1-2.5L3,104z"/>
			<path d="M8.2,98.9l2.5,7.1l2.5-7.1c0.1-0.3,0.2-0.7,0.3-1c-0.5-0.4-1.2-0.9-1.7-1.2s-0.7-0.5-1.1-0.8l-1.1,0.8
				c-0.5,0.4-1.2,0.9-1.7,1.2C8,98.2,8.1,98.5,8.2,98.9"/>
		</g>
		<g>
			<path d="M67.2,103.7c-0.3,0.1-0.7,0.2-1,0.3l-7.1,2.5l7.1,2.5c0.3,0.1,0.7,0.2,1,0.3c0.4-0.4,0.9-1.2,1.2-1.7
				c0.2-0.4,0.5-0.7,0.8-1.1c-0.3-0.4-0.5-0.8-0.8-1.1C68.1,104.9,67.6,104.2,67.2,103.7"/>
			<path d="M61.1,114.1l-2.5-7.1l-2.5,7.1c-0.1,0.3-0.2,0.7-0.3,1c0.5,0.4,1.2,0.9,1.7,1.2l1.1,0.8c0.4-0.3,0.8-0.5,1.1-0.8
				s1.2-0.8,1.7-1.2C61.3,114.8,61.2,114.5,61.1,114.1"/>
			<path d="M50.9,104c-0.3-0.1-0.7-0.2-1-0.3c-0.4,0.4-0.9,1.2-1.2,1.7c-0.2,0.4-0.5,0.7-0.8,1.1l0.8,1.1c0.4,0.5,0.8,1.2,1.2,1.7
				c0.3-0.1,0.7-0.2,1-0.3l7.1-2.5L50.9,104z"/>
			<path d="M56.1,98.9l2.5,7.1l2.5-7.1c0.1-0.3,0.2-0.7,0.3-1c-0.5-0.4-1.2-0.9-1.7-1.2s-0.7-0.5-1.1-0.8l-1.1,0.8
				c-0.5,0.4-1.2,0.9-1.7,1.2C55.9,98.2,56,98.5,56.1,98.9"/>
		</g>
		<g>
			<path d="M115.2,103.7c-0.3,0.1-0.7,0.2-1,0.3l-7.1,2.5l7.1,2.5c0.3,0.1,0.7,0.2,1,0.3c0.4-0.4,0.9-1.2,1.2-1.7
				c0.2-0.4,0.5-0.7,0.8-1.1c-0.3-0.4-0.5-0.8-0.8-1.1C116,104.9,115.5,104.2,115.2,103.7"/>
			<path d="M109,114.1l-2.5-7.1l-2.5,7.1c-0.1,0.3-0.2,0.7-0.3,1c0.5,0.4,1.2,0.9,1.7,1.2s0.8,0.5,1.1,0.8c0.4-0.3,0.8-0.5,1.1-0.8
				s1.2-0.8,1.7-1.2C109.2,114.8,109.1,114.5,109,114.1"/>
			<path d="M98.9,104c-0.3-0.1-0.7-0.2-1-0.3c-0.4,0.4-0.9,1.2-1.2,1.7c-0.2,0.4-0.5,0.7-0.8,1.1c0.3,0.4,0.5,0.8,0.8,1.1
				c0.4,0.5,0.8,1.2,1.2,1.7c0.3-0.1,0.7-0.2,1-0.3l7.1-2.5L98.9,104z"/>
			<path d="M104,98.9l2.5,7.1l2.5-7.1c0.1-0.3,0.2-0.7,0.3-1c-0.5-0.4-1.2-0.9-1.7-1.2s-0.7-0.5-1.1-0.8l-1.1,0.8
				c-0.5,0.4-1.2,0.9-1.7,1.2C103.8,98.2,103.9,98.5,104,98.9"/>
		</g>
		<g>
			<path d="M163.1,103.7c-0.3,0.1-0.7,0.2-1,0.3l-7.1,2.5l7.1,2.5c0.3,0.1,0.7,0.2,1,0.3c0.4-0.4,0.9-1.2,1.2-1.7
				c0.2-0.4,0.5-0.7,0.8-1.1c-0.3-0.4-0.5-0.8-0.8-1.1C163.9,104.9,163.4,104.2,163.1,103.7"/>
			<path d="M156.9,114.1l-2.5-7.1l-2.5,7.1c-0.1,0.3-0.2,0.7-0.3,1c0.5,0.4,1.2,0.9,1.7,1.2s0.8,0.5,1.1,0.8
				c0.4-0.3,0.8-0.5,1.1-0.8c0.5-0.4,1.2-0.8,1.7-1.2C157.1,114.8,157,114.5,156.9,114.1"/>
			<path d="M146.8,104c-0.3-0.1-0.7-0.2-1-0.3c-0.4,0.4-0.9,1.2-1.2,1.7c-0.2,0.4-0.5,0.7-0.8,1.1c0.3,0.4,0.5,0.8,0.8,1.1
				c0.4,0.5,0.8,1.2,1.2,1.7c0.3-0.1,0.7-0.2,1-0.3l7.1-2.5L146.8,104z"/>
			<path d="M151.9,98.9l2.5,7.1l2.5-7.1c0.1-0.3,0.2-0.7,0.3-1c-0.5-0.4-1.2-0.9-1.7-1.2c-0.4-0.2-0.7-0.5-1.1-0.8l-1.1,0.8
				c-0.5,0.4-1.2,0.9-1.7,1.2C151.7,98.2,151.8,98.5,151.9,98.9"/>
		</g>
		<g>
			<path d="M67.2,151.6c-0.3,0.1-0.7,0.2-1,0.3l-7.1,2.5l7.1,2.5c0.3,0.1,0.7,0.2,1,0.3c0.4-0.5,0.9-1.2,1.2-1.7
				c0.2-0.4,0.5-0.7,0.8-1.1c-0.3-0.4-0.5-0.8-0.8-1.1S67.6,152.1,67.2,151.6"/>
			<path d="M61.1,162l-2.5-7.1l-2.5,7.1c-0.1,0.3-0.2,0.7-0.3,1c0.5,0.4,1.2,0.9,1.7,1.2l1.1,0.8c0.4-0.3,0.8-0.5,1.1-0.8
				s1.2-0.8,1.7-1.2C61.3,162.7,61.2,162.4,61.1,162"/>
			<path d="M50.9,151.9c-0.3-0.1-0.7-0.2-1-0.3c-0.4,0.5-0.9,1.2-1.2,1.7s-0.5,0.7-0.8,1.1l0.8,1.1c0.4,0.5,0.8,1.2,1.2,1.7
				c0.3-0.1,0.7-0.2,1-0.3l7.1-2.5L50.9,151.9z"/>
			<path d="M56.1,146.8l2.5,7.1l2.5-7.1c0.1-0.3,0.2-0.7,0.3-1c-0.5-0.4-1.2-0.9-1.7-1.2s-0.7-0.5-1.1-0.8l-1.1,0.8
				c-0.5,0.4-1.2,0.9-1.7,1.2C55.9,146.1,56,146.4,56.1,146.8"/>
		</g>
		<g>
			<path d="M115.2,151.6c-0.3,0.1-0.7,0.2-1,0.3l-7.1,2.5l7.1,2.5c0.3,0.1,0.7,0.2,1,0.3c0.4-0.5,0.9-1.2,1.2-1.7
				c0.2-0.4,0.5-0.7,0.8-1.1c-0.3-0.4-0.5-0.8-0.8-1.1S115.5,152.1,115.2,151.6"/>
			<path d="M109,162l-2.5-7.1L104,162c-0.1,0.3-0.2,0.7-0.3,1c0.5,0.4,1.2,0.9,1.7,1.2s0.8,0.5,1.1,0.8c0.4-0.3,0.8-0.5,1.1-0.8
				s1.2-0.8,1.7-1.2C109.2,162.7,109.1,162.4,109,162"/>
			<path d="M98.9,151.9c-0.3-0.1-0.7-0.2-1-0.3c-0.4,0.5-0.9,1.2-1.2,1.7s-0.5,0.7-0.8,1.1c0.3,0.4,0.5,0.8,0.8,1.1
				c0.4,0.5,0.8,1.2,1.2,1.7c0.3-0.1,0.7-0.2,1-0.3l7.1-2.5L98.9,151.9z"/>
			<path d="M104,146.8l2.5,7.1l2.5-7.1c0.1-0.3,0.2-0.7,0.3-1c-0.5-0.4-1.2-0.9-1.7-1.2s-0.7-0.5-1.1-0.8l-1.1,0.8
				c-0.5,0.4-1.2,0.9-1.7,1.2C103.8,146.1,103.9,146.4,104,146.8"/>
		</g>
		<g>
			<path d="M19.3,7.8c-0.3,0.1-0.7,0.2-1,0.3l-7.1,2.5l7.1,2.5c0.3,0.1,0.7,0.2,1,0.3c0.4-0.4,0.9-1.2,1.2-1.7
				c0.2-0.4,0.5-0.7,0.8-1.1c-0.3-0.4-0.5-0.8-0.8-1.1C20.2,9,19.7,8.3,19.3,7.8"/>
			<path d="M13.2,18.3l-2.5-7.1l-2.5,7.1c-0.1,0.3-0.2,0.7-0.3,1c0.5,0.4,1.2,0.9,1.7,1.2l1.1,0.8c0.4-0.3,0.8-0.6,1.1-0.8
				s1.2-0.8,1.7-1.2C13.4,18.9,13.3,18.6,13.2,18.3"/>
			<path d="M3,8.1C2.7,8,2.3,7.9,2,7.8C1.6,8.3,1.1,9,0.8,9.5C0.5,9.9,0.3,10.3,0,10.6l0.8,1.1C1.1,12.3,1.6,13,2,13.4
				c0.3-0.1,0.7-0.2,1-0.3l7.1-2.5L3,8.1z"/>
			<path d="M8.1,3l2.5,7.1L13.2,3c0.1-0.3,0.2-0.7,0.3-1c-0.5-0.4-1.2-0.9-1.7-1.2S11.1,0.3,10.7,0L9.6,0.8C9,1.1,8.3,1.6,7.9,2
				C8,2.3,8,2.7,8.1,3"/>
		</g>
		<g>
			<path d="M163.1,7.9c-0.3,0.1-0.7,0.2-1,0.3l-7.1,2.5l7.1,2.5c0.3,0.1,0.7,0.2,1,0.3c0.4-0.4,0.9-1.2,1.2-1.7
				c0.2-0.4,0.5-0.7,0.8-1.1c-0.3-0.4-0.5-0.8-0.8-1.1C164,9,163.5,8.3,163.1,7.9"/>
			<path d="M157,18.3l-2.5-7.1l-2.5,7.1c-0.1,0.3-0.2,0.7-0.3,1c0.5,0.4,1.2,0.9,1.7,1.2l1.1,0.8c0.4-0.3,0.8-0.6,1.1-0.8
				s1.2-0.8,1.7-1.2C157.2,19,157.1,18.6,157,18.3"/>
			<path d="M146.8,8.1c-0.3-0.1-0.7-0.2-1-0.3c-0.4,0.4-0.9,1.2-1.2,1.7c-0.2,0.4-0.5,0.7-0.8,1.1l0.8,1.1c0.4,0.5,0.8,1.2,1.2,1.7
				c0.3-0.1,0.7-0.2,1-0.3l7.1-2.5L146.8,8.1z"/>
			<path d="M151.9,3l2.5,7.1L157,3c0.1-0.3,0.2-0.7,0.3-1c-0.5-0.4-1.2-0.9-1.7-1.2s-0.7-0.5-1.1-0.8l-1.1,0.8
				c-0.5,0.4-1.2,0.9-1.7,1.2C151.8,2.4,151.9,2.7,151.9,3"/>
		</g>
		<g>
			<path d="M19.3,151.6c-0.3,0.1-0.7,0.2-1,0.3l-7.1,2.5l7.1,2.5c0.3,0.1,0.7,0.2,1,0.3c0.4-0.4,0.9-1.2,1.2-1.7
				c0.2-0.4,0.5-0.7,0.8-1.1c-0.3-0.4-0.5-0.8-0.8-1.1C20.2,152.8,19.7,152.1,19.3,151.6"/>
			<path d="M13.2,162.1l-2.5-7.1l-2.5,7.1c-0.1,0.3-0.2,0.7-0.3,1c0.5,0.4,1.2,0.9,1.7,1.2l1.1,0.8c0.4-0.3,0.8-0.6,1.1-0.8
				s1.2-0.8,1.7-1.2C13.4,162.7,13.3,162.4,13.2,162.1"/>
			<path d="M3,151.9c-0.3-0.1-0.7-0.2-1-0.3c-0.4,0.4-0.9,1.2-1.2,1.7c-0.2,0.4-0.5,0.7-0.8,1.1l0.8,1.1c0.4,0.5,0.8,1.2,1.2,1.7
				c0.3-0.1,0.7-0.2,1-0.3l7.1-2.5L3,151.9z"/>
			<path d="M8.2,146.8l2.5,7.1l2.5-7.1c0.1-0.3,0.2-0.7,0.3-1c-0.5-0.4-1.2-0.9-1.7-1.2s-0.7-0.5-1.1-0.8l-1.1,0.8
				c-0.5,0.4-1.2,0.9-1.7,1.2C8,146.1,8.1,146.5,8.2,146.8"/>
		</g>
		<g>
			<path d="M163.1,151.6c-0.3,0.1-0.7,0.2-1,0.3l-7.1,2.5l7.1,2.5c0.3,0.1,0.7,0.2,1,0.3c0.4-0.4,0.9-1.2,1.2-1.7
				c0.2-0.4,0.5-0.7,0.8-1.1c-0.3-0.4-0.5-0.8-0.8-1.1C164,152.8,163.5,152.1,163.1,151.6"/>
			<path d="M157,162.1l-2.5-7.1l-2.5,7.1c-0.1,0.3-0.2,0.7-0.3,1c0.5,0.4,1.2,0.9,1.7,1.2l1.1,0.8c0.4-0.3,0.8-0.6,1.1-0.8
				s1.2-0.8,1.7-1.2C157.2,162.7,157.1,162.4,157,162.1"/>
			<path d="M146.8,151.9c-0.3-0.1-0.7-0.2-1-0.3c-0.4,0.4-0.9,1.2-1.2,1.7c-0.2,0.4-0.5,0.7-0.8,1.1l0.8,1.1
				c0.4,0.5,0.8,1.2,1.2,1.7c0.3-0.1,0.7-0.2,1-0.3l7.1-2.5L146.8,151.9z"/>
			<path d="M151.9,146.8l2.5,7.1l2.5-7.1c0.1-0.3,0.2-0.7,0.3-1c-0.5-0.4-1.2-0.9-1.7-1.2s-0.7-0.5-1.1-0.8l-1.1,0.8
				c-0.5,0.4-1.2,0.9-1.7,1.2C151.8,146.1,151.9,146.5,151.9,146.8"/>
		</g>
	</g>
	<g class="st0">
		<g>
			<path d="M261.8,7.9c-0.3,0.1-0.7,0.2-1,0.3l-7.1,2.5l7.1,2.5c0.3,0.1,0.7,0.2,1,0.3c0.4-0.4,0.9-1.2,1.2-1.7
				c0.2-0.4,0.5-0.7,0.8-1.1c-0.3-0.4-0.5-0.8-0.8-1.1S262.2,8.3,261.8,7.9"/>
			<path d="M255.7,18.3l-2.5-7.1l-2.5,7.1c-0.1,0.3-0.2,0.7-0.3,1c0.5,0.4,1.2,0.9,1.7,1.2l1.1,0.8c0.4-0.3,0.8-0.6,1.1-0.8
				s1.2-0.8,1.7-1.2C255.9,19,255.8,18.6,255.7,18.3"/>
			<path d="M245.6,8.2c-0.3-0.1-0.7-0.2-1-0.3c-0.4,0.4-0.9,1.2-1.2,1.7s-0.5,0.7-0.8,1.1l0.8,1.1c0.4,0.5,0.8,1.2,1.2,1.7
				c0.3-0.1,0.7-0.2,1-0.3l7.1-2.5L245.6,8.2z"/>
			<path d="M250.7,3.1l2.5,7.1l2.5-7.1c0.1-0.3,0.2-0.7,0.3-1c-0.5-0.4-1.2-0.9-1.7-1.2s-0.7-0.5-1.1-0.8l-1.1,0.8
				c-0.5,0.4-1.2,0.9-1.7,1.2C250.5,2.4,250.6,2.7,250.7,3.1"/>
		</g>
		<g>
			<path d="M309.8,7.9c-0.3,0.1-0.7,0.2-1,0.3l-7.1,2.5l7.1,2.5c0.3,0.1,0.7,0.2,1,0.3c0.4-0.4,0.9-1.2,1.2-1.7
				c0.2-0.4,0.5-0.7,0.8-1.1c-0.3-0.4-0.5-0.8-0.8-1.1S310.2,8.3,309.8,7.9"/>
			<path d="M303.6,18.3l-2.5-7.1l-2.5,7.1c-0.1,0.3-0.2,0.7-0.3,1c0.5,0.4,1.2,0.9,1.7,1.2s0.8,0.5,1.1,0.8c0.4-0.3,0.8-0.6,1.1-0.8
				s1.2-0.8,1.7-1.2C303.8,19,303.8,18.6,303.6,18.3"/>
			<path d="M293.5,8.2c-0.3-0.1-0.7-0.2-1-0.3c-0.4,0.4-0.9,1.2-1.2,1.7s-0.5,0.7-0.8,1.1c0.3,0.4,0.5,0.8,0.8,1.1
				c0.4,0.5,0.8,1.2,1.2,1.7c0.3-0.1,0.7-0.2,1-0.3l7.1-2.5L293.5,8.2z"/>
			<path d="M298.6,3.1l2.5,7.1l2.5-7.1c0.1-0.3,0.2-0.7,0.3-1c-0.5-0.4-1.2-0.9-1.7-1.2s-0.7-0.5-1.1-0.8L300,0.8
				c-0.5,0.4-1.2,0.9-1.7,1.2C298.4,2.4,298.5,2.7,298.6,3.1"/>
		</g>
		<g>
			<path d="M214,55.8c-0.3,0.1-0.7,0.2-1,0.3l-7.1,2.5l7.1,2.5c0.3,0.1,0.7,0.2,1,0.3c0.4-0.4,0.9-1.2,1.2-1.7
				c0.2-0.4,0.5-0.7,0.8-1.1c-0.3-0.4-0.5-0.8-0.8-1.1C214.8,57,214.3,56.2,214,55.8"/>
			<path d="M207.8,66.2l-2.5-7.1l-2.5,7.1c-0.1,0.3-0.2,0.7-0.3,1c0.5,0.4,1.2,0.9,1.7,1.2l1.1,0.8c0.4-0.3,0.8-0.6,1.1-0.8
				s1.2-0.8,1.7-1.2C208.1,66.9,208,66.5,207.8,66.2"/>
			<path d="M197.7,56.1c-0.3-0.1-0.7-0.2-1-0.3c-0.4,0.4-0.9,1.2-1.2,1.7c-0.2,0.4-0.5,0.7-0.8,1.1l0.8,1.1c0.4,0.5,0.8,1.2,1.2,1.7
				c0.3-0.1,0.7-0.2,1-0.3l7.1-2.5L197.7,56.1z"/>
			<path d="M202.8,51l2.5,7.1l2.5-7.1c0.1-0.3,0.2-0.7,0.3-1c-0.5-0.4-1.2-0.9-1.7-1.2s-0.7-0.5-1.1-0.8l-1.1,0.8
				c-0.5,0.4-1.2,0.9-1.7,1.2C202.6,50.3,202.7,50.6,202.8,51"/>
		</g>
		<g>
			<path d="M261.8,55.8c-0.3,0.1-0.7,0.2-1,0.3l-7.1,2.5l7.1,2.5c0.3,0.1,0.7,0.2,1,0.3c0.4-0.4,0.9-1.2,1.2-1.7
				c0.2-0.4,0.5-0.7,0.8-1.1c-0.3-0.4-0.5-0.8-0.8-1.1C262.7,57,262.2,56.2,261.8,55.8"/>
			<path d="M255.7,66.2l-2.5-7.1l-2.5,7.1c-0.1,0.3-0.2,0.7-0.3,1c0.5,0.4,1.2,0.9,1.7,1.2l1.1,0.8c0.4-0.3,0.8-0.6,1.1-0.8
				s1.2-0.8,1.7-1.2C255.9,66.9,255.8,66.5,255.7,66.2"/>
			<path d="M245.6,56.1c-0.3-0.1-0.7-0.2-1-0.3c-0.4,0.4-0.9,1.2-1.2,1.7c-0.2,0.4-0.5,0.7-0.8,1.1l0.8,1.1c0.4,0.5,0.8,1.2,1.2,1.7
				c0.3-0.1,0.7-0.2,1-0.3l7.1-2.5L245.6,56.1z"/>
			<path d="M250.7,51l2.5,7.1l2.5-7.1c0.1-0.3,0.2-0.7,0.3-1c-0.5-0.4-1.2-0.9-1.7-1.2s-0.7-0.5-1.1-0.8l-1.1,0.8
				c-0.5,0.4-1.2,0.9-1.7,1.2C250.5,50.3,250.6,50.6,250.7,51"/>
		</g>
		<g>
			<path d="M309.8,55.8c-0.3,0.1-0.7,0.2-1,0.3l-7.1,2.5l7.1,2.5c0.3,0.1,0.7,0.2,1,0.3c0.4-0.4,0.9-1.2,1.2-1.7
				c0.2-0.4,0.5-0.7,0.8-1.1c-0.3-0.4-0.5-0.8-0.8-1.1C310.6,57,310.2,56.2,309.8,55.8"/>
			<path d="M303.6,66.2l-2.5-7.1l-2.5,7.1c-0.1,0.3-0.2,0.7-0.3,1c0.5,0.4,1.2,0.9,1.7,1.2s0.8,0.5,1.1,0.8c0.4-0.3,0.8-0.6,1.1-0.8
				s1.2-0.8,1.7-1.2C303.8,66.9,303.8,66.5,303.6,66.2"/>
			<path d="M293.5,56.1c-0.3-0.1-0.7-0.2-1-0.3c-0.4,0.4-0.9,1.2-1.2,1.7c-0.2,0.4-0.5,0.7-0.8,1.1c0.3,0.4,0.5,0.8,0.8,1.1
				c0.4,0.5,0.8,1.2,1.2,1.7c0.3-0.1,0.7-0.2,1-0.3l7.1-2.5L293.5,56.1z"/>
			<path d="M298.6,51l2.5,7.1l2.5-7.1c0.1-0.3,0.2-0.7,0.3-1c-0.5-0.4-1.2-0.9-1.7-1.2s-0.7-0.5-1.1-0.8l-1.1,0.8
				c-0.5,0.4-1.2,0.9-1.7,1.2C298.4,50.3,298.5,50.6,298.6,51"/>
		</g>
		<g>
			<path d="M357.7,55.8c-0.3,0.1-0.7,0.2-1,0.3l-7.1,2.5l7.1,2.5c0.3,0.1,0.7,0.2,1,0.3c0.4-0.4,0.9-1.2,1.2-1.7
				c0.2-0.4,0.5-0.7,0.8-1.1c-0.3-0.4-0.5-0.8-0.8-1.1C358.6,57,358.1,56.2,357.7,55.8"/>
			<path d="M351.5,66.2l-2.5-7.1l-2.5,7.1c-0.1,0.3-0.2,0.7-0.3,1c0.5,0.4,1.2,0.9,1.7,1.2s0.8,0.5,1.1,0.8c0.4-0.3,0.8-0.6,1.1-0.8
				c0.5-0.4,1.2-0.8,1.7-1.2C351.8,66.9,351.7,66.5,351.5,66.2"/>
			<path d="M341.4,56.1c-0.3-0.1-0.7-0.2-1-0.3c-0.4,0.4-0.9,1.2-1.2,1.7c-0.2,0.4-0.5,0.7-0.8,1.1c0.3,0.4,0.5,0.8,0.8,1.1
				c0.4,0.5,0.8,1.2,1.2,1.7c0.3-0.1,0.7-0.2,1-0.3l7.1-2.5L341.4,56.1z"/>
			<path d="M346.5,51L349,58l2.5-7.1c0.1-0.3,0.2-0.7,0.3-1c-0.5-0.4-1.2-0.9-1.7-1.2c-0.4-0.2-0.7-0.5-1.1-0.8l-1.1,0.8
				c-0.5,0.4-1.2,0.9-1.7,1.2C346.3,50.3,346.4,50.6,346.5,51"/>
		</g>
		<g>
			<path d="M214,103.7c-0.3,0.1-0.7,0.2-1,0.3l-7.1,2.5l7.1,2.5c0.3,0.1,0.7,0.2,1,0.3c0.4-0.4,0.9-1.2,1.2-1.7
				c0.2-0.4,0.5-0.7,0.8-1.1c-0.3-0.4-0.5-0.8-0.8-1.1C214.8,104.9,214.3,104.2,214,103.7"/>
			<path d="M207.8,114.1l-2.5-7.1l-2.5,7.1c-0.1,0.3-0.2,0.7-0.3,1c0.5,0.4,1.2,0.9,1.7,1.2l1.1,0.8c0.4-0.3,0.8-0.5,1.1-0.8
				s1.2-0.8,1.7-1.2C208.1,114.8,208,114.5,207.8,114.1"/>
			<path d="M197.7,104c-0.3-0.1-0.7-0.2-1-0.3c-0.4,0.4-0.9,1.2-1.2,1.7c-0.2,0.4-0.5,0.7-0.8,1.1l0.8,1.1c0.4,0.5,0.8,1.2,1.2,1.7
				c0.3-0.1,0.7-0.2,1-0.3l7.1-2.5L197.7,104z"/>
			<path d="M202.8,98.9l2.5,7.1l2.5-7.1c0.1-0.3,0.2-0.7,0.3-1c-0.5-0.4-1.2-0.9-1.7-1.2s-0.7-0.5-1.1-0.8l-1.1,0.8
				c-0.5,0.4-1.2,0.9-1.7,1.2C202.6,98.2,202.7,98.5,202.8,98.9"/>
		</g>
		<g>
			<path d="M261.8,103.7c-0.3,0.1-0.7,0.2-1,0.3l-7.1,2.5l7.1,2.5c0.3,0.1,0.7,0.2,1,0.3c0.4-0.4,0.9-1.2,1.2-1.7
				c0.2-0.4,0.5-0.7,0.8-1.1c-0.3-0.4-0.5-0.8-0.8-1.1C262.7,104.9,262.2,104.2,261.8,103.7"/>
			<path d="M255.7,114.1l-2.5-7.1l-2.5,7.1c-0.1,0.3-0.2,0.7-0.3,1c0.5,0.4,1.2,0.9,1.7,1.2l1.1,0.8c0.4-0.3,0.8-0.5,1.1-0.8
				s1.2-0.8,1.7-1.2C255.9,114.8,255.8,114.5,255.7,114.1"/>
			<path d="M245.6,104c-0.3-0.1-0.7-0.2-1-0.3c-0.4,0.4-0.9,1.2-1.2,1.7c-0.2,0.4-0.5,0.7-0.8,1.1l0.8,1.1c0.4,0.5,0.8,1.2,1.2,1.7
				c0.3-0.1,0.7-0.2,1-0.3l7.1-2.5L245.6,104z"/>
			<path d="M250.7,98.9l2.5,7.1l2.5-7.1c0.1-0.3,0.2-0.7,0.3-1c-0.5-0.4-1.2-0.9-1.7-1.2s-0.7-0.5-1.1-0.8l-1.1,0.8
				c-0.5,0.4-1.2,0.9-1.7,1.2C250.5,98.2,250.6,98.5,250.7,98.9"/>
		</g>
		<g>
			<path d="M309.8,103.7c-0.3,0.1-0.7,0.2-1,0.3l-7.1,2.5l7.1,2.5c0.3,0.1,0.7,0.2,1,0.3c0.4-0.4,0.9-1.2,1.2-1.7
				c0.2-0.4,0.5-0.7,0.8-1.1c-0.3-0.4-0.5-0.8-0.8-1.1C310.6,104.9,310.2,104.2,309.8,103.7"/>
			<path d="M303.6,114.1l-2.5-7.1l-2.5,7.1c-0.1,0.3-0.2,0.7-0.3,1c0.5,0.4,1.2,0.9,1.7,1.2s0.8,0.5,1.1,0.8
				c0.4-0.3,0.8-0.5,1.1-0.8s1.2-0.8,1.7-1.2C303.8,114.8,303.8,114.5,303.6,114.1"/>
			<path d="M293.5,104c-0.3-0.1-0.7-0.2-1-0.3c-0.4,0.4-0.9,1.2-1.2,1.7c-0.2,0.4-0.5,0.7-0.8,1.1c0.3,0.4,0.5,0.8,0.8,1.1
				c0.4,0.5,0.8,1.2,1.2,1.7c0.3-0.1,0.7-0.2,1-0.3l7.1-2.5L293.5,104z"/>
			<path d="M298.6,98.9l2.5,7.1l2.5-7.1c0.1-0.3,0.2-0.7,0.3-1c-0.5-0.4-1.2-0.9-1.7-1.2s-0.7-0.5-1.1-0.8l-1.1,0.8
				c-0.5,0.4-1.2,0.9-1.7,1.2C298.4,98.2,298.5,98.5,298.6,98.9"/>
		</g>
		<g>
			<path d="M357.7,103.7c-0.3,0.1-0.7,0.2-1,0.3l-7.1,2.5l7.1,2.5c0.3,0.1,0.7,0.2,1,0.3c0.4-0.4,0.9-1.2,1.2-1.7
				c0.2-0.4,0.5-0.7,0.8-1.1c-0.3-0.4-0.5-0.8-0.8-1.1C358.6,104.9,358.1,104.2,357.7,103.7"/>
			<path d="M351.5,114.1l-2.5-7.1l-2.5,7.1c-0.1,0.3-0.2,0.7-0.3,1c0.5,0.4,1.2,0.9,1.7,1.2s0.8,0.5,1.1,0.8
				c0.4-0.3,0.8-0.5,1.1-0.8c0.5-0.4,1.2-0.8,1.7-1.2C351.8,114.8,351.7,114.5,351.5,114.1"/>
			<path d="M341.4,104c-0.3-0.1-0.7-0.2-1-0.3c-0.4,0.4-0.9,1.2-1.2,1.7c-0.2,0.4-0.5,0.7-0.8,1.1c0.3,0.4,0.5,0.8,0.8,1.1
				c0.4,0.5,0.8,1.2,1.2,1.7c0.3-0.1,0.7-0.2,1-0.3l7.1-2.5L341.4,104z"/>
			<path d="M346.5,98.9l2.5,7.1l2.5-7.1c0.1-0.3,0.2-0.7,0.3-1c-0.5-0.4-1.2-0.9-1.7-1.2c-0.4-0.2-0.7-0.5-1.1-0.8l-1.1,0.8
				c-0.5,0.4-1.2,0.9-1.7,1.2C346.3,98.2,346.4,98.5,346.5,98.9"/>
		</g>
		<g>
			<path d="M261.8,151.6c-0.3,0.1-0.7,0.2-1,0.3l-7.1,2.5l7.1,2.5c0.3,0.1,0.7,0.2,1,0.3c0.4-0.5,0.9-1.2,1.2-1.7
				c0.2-0.4,0.5-0.7,0.8-1.1c-0.3-0.4-0.5-0.8-0.8-1.1S262.2,152.1,261.8,151.6"/>
			<path d="M255.7,162l-2.5-7.1l-2.5,7.1c-0.1,0.3-0.2,0.7-0.3,1c0.5,0.4,1.2,0.9,1.7,1.2l1.1,0.8c0.4-0.3,0.8-0.5,1.1-0.8
				s1.2-0.8,1.7-1.2C255.9,162.7,255.8,162.4,255.7,162"/>
			<path d="M245.6,151.9c-0.3-0.1-0.7-0.2-1-0.3c-0.4,0.5-0.9,1.2-1.2,1.7s-0.5,0.7-0.8,1.1l0.8,1.1c0.4,0.5,0.8,1.2,1.2,1.7
				c0.3-0.1,0.7-0.2,1-0.3l7.1-2.5L245.6,151.9z"/>
			<path d="M250.7,146.8l2.5,7.1l2.5-7.1c0.1-0.3,0.2-0.7,0.3-1c-0.5-0.4-1.2-0.9-1.7-1.2s-0.7-0.5-1.1-0.8l-1.1,0.8
				c-0.5,0.4-1.2,0.9-1.7,1.2C250.5,146.1,250.6,146.4,250.7,146.8"/>
		</g>
		<g>
			<path d="M309.8,151.6c-0.3,0.1-0.7,0.2-1,0.3l-7.1,2.5l7.1,2.5c0.3,0.1,0.7,0.2,1,0.3c0.4-0.5,0.9-1.2,1.2-1.7
				c0.2-0.4,0.5-0.7,0.8-1.1c-0.3-0.4-0.5-0.8-0.8-1.1S310.2,152.1,309.8,151.6"/>
			<path d="M303.6,162l-2.5-7.1l-2.5,7.1c-0.1,0.3-0.2,0.7-0.3,1c0.5,0.4,1.2,0.9,1.7,1.2s0.8,0.5,1.1,0.8c0.4-0.3,0.8-0.5,1.1-0.8
				s1.2-0.8,1.7-1.2C303.8,162.7,303.8,162.4,303.6,162"/>
			<path d="M293.5,151.9c-0.3-0.1-0.7-0.2-1-0.3c-0.4,0.5-0.9,1.2-1.2,1.7s-0.5,0.7-0.8,1.1c0.3,0.4,0.5,0.8,0.8,1.1
				c0.4,0.5,0.8,1.2,1.2,1.7c0.3-0.1,0.7-0.2,1-0.3l7.1-2.5L293.5,151.9z"/>
			<path d="M298.6,146.8l2.5,7.1l2.5-7.1c0.1-0.3,0.2-0.7,0.3-1c-0.5-0.4-1.2-0.9-1.7-1.2s-0.7-0.5-1.1-0.8l-1.1,0.8
				c-0.5,0.4-1.2,0.9-1.7,1.2C298.4,146.1,298.5,146.4,298.6,146.8"/>
		</g>
		<g>
			<path d="M213.9,7.8c-0.3,0.1-0.7,0.2-1,0.3l-7.1,2.5l7.1,2.5c0.3,0.1,0.7,0.2,1,0.3c0.4-0.4,0.9-1.2,1.2-1.7
				c0.2-0.4,0.5-0.7,0.8-1.1c-0.3-0.4-0.5-0.8-0.8-1.1C214.8,9,214.3,8.3,213.9,7.8"/>
			<path d="M207.8,18.3l-2.5-7.1l-2.5,7.1c-0.1,0.3-0.2,0.7-0.3,1c0.5,0.4,1.2,0.9,1.7,1.2l1.1,0.8c0.4-0.3,0.8-0.6,1.1-0.8
				s1.2-0.8,1.7-1.2C208,18.9,207.9,18.6,207.8,18.3"/>
			<path d="M197.6,8.1c-0.3-0.1-0.7-0.2-1-0.3c-0.4,0.4-0.9,1.2-1.2,1.7c-0.2,0.4-0.5,0.7-0.8,1.1l0.8,1.1c0.4,0.5,0.8,1.2,1.2,1.7
				c0.3-0.1,0.7-0.2,1-0.3l7.1-2.5L197.6,8.1z"/>
			<path d="M202.7,3l2.5,7.1l2.5-7.1c0.1-0.3,0.2-0.7,0.3-1c-0.5-0.4-1.2-0.9-1.7-1.2s-0.7-0.5-1.1-0.8l-1.1,0.8
				c-0.5,0.4-1.2,0.9-1.7,1.2C202.6,2.3,202.7,2.7,202.7,3"/>
		</g>
		<g>
			<path d="M357.8,7.9c-0.3,0.1-0.7,0.2-1,0.3l-7.1,2.5l7.1,2.5c0.3,0.1,0.7,0.2,1,0.3c0.4-0.4,0.9-1.2,1.2-1.7
				c0.2-0.4,0.5-0.7,0.8-1.1c-0.3-0.4-0.5-0.8-0.8-1.1C358.6,9,358.1,8.3,357.8,7.9"/>
			<path d="M351.6,18.3l-2.5-7.1l-2.5,7.1c-0.1,0.3-0.2,0.7-0.3,1c0.5,0.4,1.2,0.9,1.7,1.2l1.1,0.8c0.4-0.3,0.8-0.6,1.1-0.8
				s1.2-0.8,1.7-1.2C351.8,19,351.8,18.6,351.6,18.3"/>
			<path d="M341.4,8.1c-0.3-0.1-0.7-0.2-1-0.3c-0.4,0.4-0.9,1.2-1.2,1.7c-0.2,0.4-0.5,0.7-0.8,1.1l0.8,1.1c0.4,0.5,0.8,1.2,1.2,1.7
				c0.3-0.1,0.7-0.2,1-0.3l7.1-2.5L341.4,8.1z"/>
			<path d="M346.6,3l2.5,7.1l2.5-7.1c0.1-0.3,0.2-0.7,0.3-1c-0.5-0.4-1.2-0.9-1.7-1.2s-0.7-0.5-1.1-0.8L348,0.8
				c-0.5,0.4-1.2,0.9-1.7,1.2C346.4,2.4,346.5,2.7,346.6,3"/>
		</g>
		<g>
			<path d="M214,151.6c-0.3,0.1-0.7,0.2-1,0.3l-7.1,2.5l7.1,2.5c0.3,0.1,0.7,0.2,1,0.3c0.4-0.4,0.9-1.2,1.2-1.7
				c0.2-0.4,0.5-0.7,0.8-1.1c-0.3-0.4-0.5-0.8-0.8-1.1C214.8,152.8,214.3,152.1,214,151.6"/>
			<path d="M207.8,162.1l-2.5-7.1l-2.5,7.1c-0.1,0.3-0.2,0.7-0.3,1c0.5,0.4,1.2,0.9,1.7,1.2l1.1,0.8c0.4-0.3,0.8-0.6,1.1-0.8
				s1.2-0.8,1.7-1.2C208.1,162.7,208,162.4,207.8,162.1"/>
			<path d="M197.7,151.9c-0.3-0.1-0.7-0.2-1-0.3c-0.4,0.4-0.9,1.2-1.2,1.7c-0.2,0.4-0.5,0.7-0.8,1.1l0.8,1.1
				c0.4,0.5,0.8,1.2,1.2,1.7c0.3-0.1,0.7-0.2,1-0.3l7.1-2.5L197.7,151.9z"/>
			<path d="M202.8,146.8l2.5,7.1l2.5-7.1c0.1-0.3,0.2-0.7,0.3-1c-0.5-0.4-1.2-0.9-1.7-1.2s-0.7-0.5-1.1-0.8l-1.1,0.8
				c-0.5,0.4-1.2,0.9-1.7,1.2C202.6,146.1,202.7,146.5,202.8,146.8"/>
		</g>
		<g>
			<path d="M357.8,151.6c-0.3,0.1-0.7,0.2-1,0.3l-7.1,2.5l7.1,2.5c0.3,0.1,0.7,0.2,1,0.3c0.4-0.4,0.9-1.2,1.2-1.7
				c0.2-0.4,0.5-0.7,0.8-1.1c-0.3-0.4-0.5-0.8-0.8-1.1C358.6,152.8,358.1,152.1,357.8,151.6"/>
			<path d="M351.6,162.1l-2.5-7.1l-2.5,7.1c-0.1,0.3-0.2,0.7-0.3,1c0.5,0.4,1.2,0.9,1.7,1.2l1.1,0.8c0.4-0.3,0.8-0.6,1.1-0.8
				s1.2-0.8,1.7-1.2C351.8,162.7,351.8,162.4,351.6,162.1"/>
			<path d="M341.4,151.9c-0.3-0.1-0.7-0.2-1-0.3c-0.4,0.4-0.9,1.2-1.2,1.7c-0.2,0.4-0.5,0.7-0.8,1.1l0.8,1.1
				c0.4,0.5,0.8,1.2,1.2,1.7c0.3-0.1,0.7-0.2,1-0.3l7.1-2.5L341.4,151.9z"/>
			<path d="M346.6,146.8l2.5,7.1l2.5-7.1c0.1-0.3,0.2-0.7,0.3-1c-0.5-0.4-1.2-0.9-1.7-1.2s-0.7-0.5-1.1-0.8l-1.1,0.8
				c-0.5,0.4-1.2,0.9-1.7,1.2C346.4,146.1,346.5,146.5,346.6,146.8"/>
		</g>
	</g>
</g>
</svg>
