<svg xmlns="http://www.w3.org/2000/svg" xmlns:xlink="http://www.w3.org/1999/xlink" viewBox="0 0 147.4 170.68"><defs><style>.cls-1{fill:none;}.cls-2{clip-path:url(#clip-path);}.cls-3{fill:#fff;}</style><clipPath id="clip-path"><rect class="cls-1" width="147.4" height="170.67"/></clipPath></defs><title>Ресурс 2</title><g id="Слой_2" data-name="Слой 2"><g id="Слой_1-2" data-name="Слой 1"><g class="cls-2"><path class="cls-3" d="M15.62,162.84c0,.23-.14.35-.41.35h-1a2.84,2.84,0,0,1-1-.14,1.62,1.62,0,0,1-.58-.38,2,2,0,0,1-.5-.86,3.83,3.83,0,0,1-.15-1.09v-.45a4.38,4.38,0,0,1-.81,1.2,5.5,5.5,0,0,1-1.25,1,7,7,0,0,1-1.54.72,5.16,5.16,0,0,1-1.69.28,6.16,6.16,0,0,1-3-.71,6,6,0,0,1-2.07-1.85A8.16,8.16,0,0,1,.4,158.3a11.84,11.84,0,0,1-.4-3.11,11.56,11.56,0,0,1,.57-3.76,8.15,8.15,0,0,1,1.56-2.8,6.91,6.91,0,0,1,2.3-1.74,6.81,6.81,0,0,1,2.81-.6,6.6,6.6,0,0,1,2.54.54A5.23,5.23,0,0,1,12,148.46l0-1.27c0-.37.2-.55.62-.55h1a.48.48,0,0,1,.55.55v12.12c0,.48,0,.88,0,1.2a1.78,1.78,0,0,0,.12.69.69.69,0,0,0,.72.41h.24a.34.34,0,0,1,.38.38Zm-3.67-12A5,5,0,0,0,10,148.75,5.16,5.16,0,0,0,7.38,148a4.44,4.44,0,0,0-3.67,1.86,8.25,8.25,0,0,0-1.44,5.18,10,10,0,0,0,.37,2.89,6.5,6.5,0,0,0,1,2.06,4.13,4.13,0,0,0,1.46,1.23,3.76,3.76,0,0,0,1.75.41,4.35,4.35,0,0,0,1.75-.36,5.5,5.5,0,0,0,1.47-.94A6.13,6.13,0,0,0,11.21,159a8,8,0,0,0,.74-1.53Z"/><path class="cls-3" d="M21.21,158.38a10,10,0,0,0,.12,1.62,1.88,1.88,0,0,0,.57,1.13,2.77,2.77,0,0,0,2,.65,6.23,6.23,0,0,0,1.15-.1,4.55,4.55,0,0,0,.95-.27c.27-.1.44,0,.51.2l.21.79c.07.28,0,.47-.35.58a6,6,0,0,1-1.25.36,7.37,7.37,0,0,1-1.56.16,7,7,0,0,1-2-.29,3.67,3.67,0,0,1-1.57-.88,3.18,3.18,0,0,1-.87-1.8A17.88,17.88,0,0,1,19,158v-9.79H17a.56.56,0,0,1-.28-.05c-.06,0-.1-.13-.1-.29V147c0-.16,0-.26.1-.29a.7.7,0,0,1,.28-.05h2v-4a.76.76,0,0,1,.08-.43.67.67,0,0,1,.36-.19l1.2-.17c.37-.05.55.14.55.55v4.26h4.15a.7.7,0,0,1,.28.05c.07,0,.1.13.1.29v.93c0,.16,0,.26-.1.29a.56.56,0,0,1-.28.05H21.21Z"/><path class="cls-3" d="M43.45,162.84c0,.23-.13.35-.41.35h-1a2.84,2.84,0,0,1-1-.14,1.54,1.54,0,0,1-.58-.38,1.89,1.89,0,0,1-.5-.86,3.83,3.83,0,0,1-.15-1.09v-.45a4.88,4.88,0,0,1-.81,1.2,5.73,5.73,0,0,1-1.25,1,7.29,7.29,0,0,1-1.55.72,5.11,5.11,0,0,1-1.68.28,6.13,6.13,0,0,1-3-.71,6,6,0,0,1-2.08-1.85,8.38,8.38,0,0,1-1.2-2.64,12.27,12.27,0,0,1-.39-3.11,11.56,11.56,0,0,1,.56-3.76,8.32,8.32,0,0,1,1.56-2.8,7,7,0,0,1,2.3-1.74,6.82,6.82,0,0,1,2.82-.6,6.63,6.63,0,0,1,2.54.54,5.13,5.13,0,0,1,2.16,1.63l0-1.27c0-.37.2-.55.61-.55h1a.49.49,0,0,1,.55.55v12.12c0,.48,0,.88,0,1.2a2.26,2.26,0,0,0,.12.69.71.71,0,0,0,.72.41h.24a.33.33,0,0,1,.38.38Zm-3.67-12a4.93,4.93,0,0,0-1.94-2.14,5.1,5.1,0,0,0-2.62-.74,4.48,4.48,0,0,0-3.68,1.86,8.25,8.25,0,0,0-1.44,5.18,10,10,0,0,0,.38,2.89,6.49,6.49,0,0,0,1,2.06A4.13,4.13,0,0,0,33,161.23a3.79,3.79,0,0,0,1.75.41,4.32,4.32,0,0,0,1.75-.36,5.56,5.56,0,0,0,1.48-.94A6.38,6.38,0,0,0,39,159a7.42,7.42,0,0,0,.74-1.53Z"/><path class="cls-3" d="M48.36,162.6c0,.39-.18.59-.55.59h-1.1c-.36,0-.55-.2-.55-.59V147.25a.53.53,0,0,1,.59-.61h1c.36,0,.55.2.55.61l0,1.17a8,8,0,0,1,2.73-1.59,9,9,0,0,1,3-.54,6.31,6.31,0,0,1,2.54.45A4.36,4.36,0,0,1,58.31,148a4.8,4.8,0,0,1,.93,1.94,11.06,11.06,0,0,1,.28,2.55V162.6c0,.39-.19.59-.55.59h-1.1c-.37,0-.55-.2-.55-.59v-9.82a10.28,10.28,0,0,0-.16-1.9,4,4,0,0,0-.56-1.51,2.8,2.8,0,0,0-1.17-1,4.44,4.44,0,0,0-1.92-.36,6.63,6.63,0,0,0-2.73.65,9.49,9.49,0,0,0-2.42,1.55Z"/><path class="cls-3" d="M78.19,162.84c0,.23-.14.35-.41.35h-1a2.77,2.77,0,0,1-1-.14,1.58,1.58,0,0,1-.59-.38,2,2,0,0,1-.5-.86,3.83,3.83,0,0,1-.15-1.09v-.45a4.38,4.38,0,0,1-.81,1.2,5.5,5.5,0,0,1-1.25,1,7,7,0,0,1-1.54.72,5.12,5.12,0,0,1-1.69.28,6.16,6.16,0,0,1-3-.71,6,6,0,0,1-2.07-1.85A8.16,8.16,0,0,1,63,158.3a11.84,11.84,0,0,1-.4-3.11,11.56,11.56,0,0,1,.57-3.76,8,8,0,0,1,1.56-2.8,6.91,6.91,0,0,1,2.3-1.74,6.81,6.81,0,0,1,2.81-.6,6.6,6.6,0,0,1,2.54.54,5.23,5.23,0,0,1,2.17,1.63l0-1.27c0-.37.2-.55.62-.55h1a.48.48,0,0,1,.55.55v12.12c0,.48,0,.88,0,1.2a1.78,1.78,0,0,0,.12.69.69.69,0,0,0,.72.41h.24a.34.34,0,0,1,.38.38Zm-3.67-12a5,5,0,0,0-1.94-2.14A5.13,5.13,0,0,0,70,148a4.44,4.44,0,0,0-3.67,1.86,8.25,8.25,0,0,0-1.44,5.18,10,10,0,0,0,.37,2.89,6.5,6.5,0,0,0,1,2.06,4.13,4.13,0,0,0,1.46,1.23,3.76,3.76,0,0,0,1.75.41,4.35,4.35,0,0,0,1.75-.36,5.5,5.5,0,0,0,1.47-.94A6.13,6.13,0,0,0,73.78,159a8,8,0,0,0,.74-1.53Z"/><path class="cls-3" d="M98.67,158.28a4.91,4.91,0,0,1-.55,2.35,5,5,0,0,1-1.46,1.67,6.49,6.49,0,0,1-2.11,1,9.44,9.44,0,0,1-2.51.33,11.34,11.34,0,0,1-2.73-.34,15.88,15.88,0,0,1-2.55-.86c-.39-.18-.52-.45-.38-.79l.62-1.89c.13-.41.41-.52.82-.34a11.36,11.36,0,0,0,4.32,1.06A3.2,3.2,0,0,0,94,160a1.52,1.52,0,0,0,.7-1.34,1.5,1.5,0,0,0-.49-1.17,5.49,5.49,0,0,0-1.56-.85l-2.72-1a6.27,6.27,0,0,1-2.5-1.69,4.08,4.08,0,0,1-1-2.88,4.2,4.2,0,0,1,.55-2.2,4.73,4.73,0,0,1,1.42-1.53,6.31,6.31,0,0,1,2-.89,9.14,9.14,0,0,1,2.25-.29,13.75,13.75,0,0,1,2.47.22,10.61,10.61,0,0,1,2.51.81c.23.11.35.23.38.34a1.22,1.22,0,0,1,0,.48l-.58,1.86a.5.5,0,0,1-.33.36.89.89,0,0,1-.5,0,14.42,14.42,0,0,0-1.89-.59,7.71,7.71,0,0,0-1.81-.24,2.3,2.3,0,0,0-1.63.5,1.45,1.45,0,0,0-.54,1.08,1.43,1.43,0,0,0,.35,1,3.45,3.45,0,0,0,1.33.77l3.09,1.27a6.38,6.38,0,0,1,2.32,1.65,4,4,0,0,1,1,2.75"/><path class="cls-3" d="M106.11,146.53H110c.44,0,.66.2.66.59v1.61q0,.66-.69.66h-3.85v7.86a8.83,8.83,0,0,0,.09,1.36,2.55,2.55,0,0,0,.36,1,1.77,1.77,0,0,0,.62.53,2.31,2.31,0,0,0,1,.18,5.48,5.48,0,0,0,1.19-.11,7.9,7.9,0,0,0,1-.3,1.8,1.8,0,0,1,.5,0c.15,0,.24.14.29.4l.34,1.71a.7.7,0,0,1-.48.86,9.78,9.78,0,0,1-1.8.57,9.44,9.44,0,0,1-2,.22,7.84,7.84,0,0,1-2.39-.34,3.72,3.72,0,0,1-1.73-1.1,3.23,3.23,0,0,1-.63-.94,4.3,4.3,0,0,1-.33-1.12,9.32,9.32,0,0,1-.12-1.37c0-.51,0-1.07,0-1.69v-7.65h-1.61a.87.87,0,0,1-.62-.16,1.15,1.15,0,0,1-.14-.7v-1.31c0-.46.21-.69.62-.69H102v-3.6a1.27,1.27,0,0,1,.14-.64.75.75,0,0,1,.55-.29l2.78-.38a.77.77,0,0,1,.48.09.59.59,0,0,1,.2.53Z"/><path class="cls-3" d="M129.87,162.54c0,.43-.23.65-.69.65h-1.65a3,3,0,0,1-2-.57,2.41,2.41,0,0,1-.82-1.46h-.07a6.28,6.28,0,0,1-2.15,1.74,6,6,0,0,1-2.83.7,6.7,6.7,0,0,1-3.14-.69,6.35,6.35,0,0,1-2.2-1.85,7.84,7.84,0,0,1-1.28-2.7,12,12,0,0,1-.41-3.21,11.54,11.54,0,0,1,.61-3.93,8.32,8.32,0,0,1,1.65-2.83,6.93,6.93,0,0,1,2.37-1.72,6.86,6.86,0,0,1,2.78-.58,6,6,0,0,1,2.56.55,4.55,4.55,0,0,1,1.83,1.44l.07-.93a.64.64,0,0,1,.72-.62h2.4c.48,0,.72.26.72.76v12.12a1.59,1.59,0,0,0,.12.71.51.51,0,0,0,.5.22h.28c.41,0,.62.19.62.58Zm-5.67-11.3a3.93,3.93,0,0,0-1.46-1.25,4,4,0,0,0-1.94-.5,3.35,3.35,0,0,0-1.49.34,3.63,3.63,0,0,0-1.24,1,5.08,5.08,0,0,0-.84,1.68,8.28,8.28,0,0,0-.3,2.35,9.67,9.67,0,0,0,.2,2.06,5.5,5.5,0,0,0,.65,1.68,3.48,3.48,0,0,0,1.14,1.15,3,3,0,0,0,1.64.43,3.23,3.23,0,0,0,1.2-.22,5.13,5.13,0,0,0,1.07-.55,3.9,3.9,0,0,0,.82-.74,4.36,4.36,0,0,0,.55-.82Z"/><path class="cls-3" d="M146.82,146.53c.55,0,.71.28.48.83l-6.76,17.79a14.59,14.59,0,0,1-1.25,2.59,6.13,6.13,0,0,1-1.57,1.7,5.66,5.66,0,0,1-2.05.94,11,11,0,0,1-2.72.3c-.32,0-.64,0-1,0a5.2,5.2,0,0,1-.86-.13c-.27-.1-.43-.21-.48-.35a1.26,1.26,0,0,1,0-.55l.24-1.78c.07-.42.28-.62.62-.62a4.4,4.4,0,0,1,.67,0,6.38,6.38,0,0,0,.7.05,4.06,4.06,0,0,0,2.41-.58,4.27,4.27,0,0,0,1.3-1.79l.65-1.54L131,147.29a.63.63,0,0,1,0-.53.48.48,0,0,1,.48-.23h3.23a1,1,0,0,1,.65.18,1,1,0,0,1,.31.51l3.78,11.26,3.6-11.16a1,1,0,0,1,1-.79Z"/><path class="cls-3" d="M12.23,106.42a1.44,1.44,0,0,0-1,.36,1.24,1.24,0,0,0-.39,1,1.22,1.22,0,0,0,.39,1,1.51,1.51,0,0,0,2,0,1.22,1.22,0,0,0,.39-1,1.24,1.24,0,0,0-.39-1,1.44,1.44,0,0,0-1-.36"/><path class="cls-3" d="M12.71,113.2h-1c-.3,0-.45.19-.45.56v8.47a8.65,8.65,0,0,1-.1,1.48,1.79,1.79,0,0,1-.4.9,1.7,1.7,0,0,1-.81.46,5.72,5.72,0,0,1-1.39.14H4.67a5.87,5.87,0,0,1-1.4-.14,1.67,1.67,0,0,1-.83-.46,1.82,1.82,0,0,1-.4-.92,8.86,8.86,0,0,1-.1-1.49V103.13c0-.32-.16-.46-.49-.41l-1.07.17c-.25,0-.38.19-.38.52v20.11a3.69,3.69,0,0,0,1,2.8,4.49,4.49,0,0,0,3.16.93h4.9a4.46,4.46,0,0,0,3.16-1,3.72,3.72,0,0,0,1-2.82v-9.72c0-.37-.16-.56-.49-.56"/><path class="cls-3" d="M26.88,109.05a1.36,1.36,0,0,0,1-.37,1.2,1.2,0,0,0,.4-1,1.21,1.21,0,0,0-.4-1,1.39,1.39,0,0,0-1-.36,1.42,1.42,0,0,0-1,.36,1.21,1.21,0,0,0-.4,1,1.2,1.2,0,0,0,.4,1,1.38,1.38,0,0,0,1,.37"/><path class="cls-3" d="M30.89,106.42a1.44,1.44,0,0,0-1,.36,1.24,1.24,0,0,0-.39,1,1.22,1.22,0,0,0,.39,1,1.4,1.4,0,0,0,1,.37,1.36,1.36,0,0,0,1-.37,1.2,1.2,0,0,0,.4-1,1.21,1.21,0,0,0-.4-1,1.39,1.39,0,0,0-1-.36"/><path class="cls-3" d="M29.37,113.2h-1c-.3,0-.45.19-.45.56v8.47a8.65,8.65,0,0,1-.1,1.48,1.79,1.79,0,0,1-.4.9,1.65,1.65,0,0,1-.81.46,5.72,5.72,0,0,1-1.39.14H21.36a5.87,5.87,0,0,1-1.4-.14,1.67,1.67,0,0,1-.83-.46,1.82,1.82,0,0,1-.4-.92,8.86,8.86,0,0,1-.1-1.49V103.13c0-.32-.16-.46-.48-.41l-1.08.17c-.25,0-.38.19-.38.52v20.11a3.69,3.69,0,0,0,1,2.8,4.49,4.49,0,0,0,3.16.93H25.7a4.48,4.48,0,0,0,3.17-1,3.76,3.76,0,0,0,1-2.82v-9.72c0-.37-.16-.56-.48-.56"/><path class="cls-3" d="M39.36,98H36.08a3.41,3.41,0,0,1-.83-2.11,1.53,1.53,0,0,1,.45-1.18,1.67,1.67,0,0,1,1.17-.41,3.36,3.36,0,0,1,1.52.34c.19.09.32.06.38-.1L39,94a.31.31,0,0,0-.17-.42,4.42,4.42,0,0,0-1-.4,5,5,0,0,0-1.07-.12,3.06,3.06,0,0,0-2,.66,2.35,2.35,0,0,0-.83,2A3.87,3.87,0,0,0,34.76,98H33.14c-.17,0-.25.09-.25.28v.65c0,.21.08.32.25.32h6.22c.16,0,.24-.11.24-.32v-.65c0-.19-.08-.28-.24-.28"/><path class="cls-3" d="M36.8,102.68l-1.1.21c-.26,0-.38.21-.38.55V126.7c0,.37.17.55.51.55h.94c.32,0,.48-.18.48-.55V103.13q0-.48-.45-.45"/><path class="cls-3" d="M54.35,106.09a2,2,0,0,0,1.39-.5,1.7,1.7,0,0,0,.57-1.36,1.75,1.75,0,0,0-.57-1.37,2,2,0,0,0-1.39-.52,2,2,0,0,0-1.42.52,1.75,1.75,0,0,0-.57,1.37,1.7,1.7,0,0,0,.57,1.36,2.07,2.07,0,0,0,1.42.5"/><path class="cls-3" d="M59.41,106.09a2,2,0,0,0,1.39-.5,1.7,1.7,0,0,0,.57-1.36,1.75,1.75,0,0,0-.57-1.37,2,2,0,0,0-1.39-.52,2,2,0,0,0-1.43.52,1.75,1.75,0,0,0-.57,1.37,1.7,1.7,0,0,0,.57,1.36,2.09,2.09,0,0,0,1.43.5"/><path class="cls-3" d="M94.21,113.07a8.15,8.15,0,0,0-2.89.48,6.29,6.29,0,0,0-2.15,1.35A5.61,5.61,0,0,0,87.85,117a7.38,7.38,0,0,0-.45,2.61,8.11,8.11,0,0,0,.28,2,6.71,6.71,0,0,0,.79,1.87h-27a2.68,2.68,0,0,1-1.91-.51,2.34,2.34,0,0,1-.5-1.65V110.84q0-.8-.75-.69l-2.48.31a.78.78,0,0,0-.48.24,1,1,0,0,0-.14.62v1.13a24.4,24.4,0,0,0-4.33,1.93,13.44,13.44,0,0,0-2.82,2.12,7,7,0,0,0-1.53,2.2,5.62,5.62,0,0,0-.46,2.18,4.43,4.43,0,0,0,.49,2.17,4.19,4.19,0,0,0,1.33,1.44,5.52,5.52,0,0,0,1.87.8,9.64,9.64,0,0,0,2.15.24,12,12,0,0,0,2-.17,8.79,8.79,0,0,0,1.8-.52q1.28,2.4,5.54,2.4H93.49A8,8,0,0,0,99,125.47q2-1.77,2-5.41a7,7,0,0,0-1.81-5.2,6.76,6.76,0,0,0-5-1.79m-39,8.23a11.31,11.31,0,0,1-1.41.39,7.06,7.06,0,0,1-1.44.16,3.32,3.32,0,0,1-1.76-.4A1.28,1.28,0,0,1,50,120.3a3.15,3.15,0,0,1,1.42-2.41,12.82,12.82,0,0,1,3.8-2Zm40.94,1.4a3.35,3.35,0,0,1-2.25.76H92.42a4.8,4.8,0,0,1-.82-1.55,5.62,5.62,0,0,1-.28-1.78,5.72,5.72,0,0,1,.14-1.26,3.09,3.09,0,0,1,.47-1.08,2.26,2.26,0,0,1,.89-.78,3.07,3.07,0,0,1,1.39-.29,3,3,0,0,1,1.38.29,2.35,2.35,0,0,1,.87.78,3.28,3.28,0,0,1,.47,1.08,5.73,5.73,0,0,1,.13,1.26,3.16,3.16,0,0,1-.91,2.57"/><path class="cls-3" d="M94.11,109.25a2.11,2.11,0,0,0,1.43-.49,1.74,1.74,0,0,0,.56-1.36,1.8,1.8,0,0,0-.56-1.38,2.07,2.07,0,0,0-1.43-.51,2,2,0,0,0-1.4.51,1.8,1.8,0,0,0-.56,1.38,1.74,1.74,0,0,0,.56,1.36,2.06,2.06,0,0,0,1.4.49"/><path class="cls-3" d="M111.92,131.37a2.08,2.08,0,0,0-1.43.52,1.76,1.76,0,0,0-.57,1.38,1.7,1.7,0,0,0,.57,1.35,2.06,2.06,0,0,0,1.43.5,2,2,0,0,0,1.39-.5,1.7,1.7,0,0,0,.57-1.35,1.76,1.76,0,0,0-.57-1.38,2,2,0,0,0-1.39-.52"/><path class="cls-3" d="M117,131.37a2,2,0,0,0-1.42.52,1.76,1.76,0,0,0-.57,1.38,1.7,1.7,0,0,0,.57,1.35,2.24,2.24,0,0,0,2.82,0,1.72,1.72,0,0,0,.56-1.35,1.79,1.79,0,0,0-.56-1.38,2,2,0,0,0-1.4-.52"/><path class="cls-3" d="M139.87,108.6a2.11,2.11,0,0,0,1.43-.5,1.7,1.7,0,0,0,.57-1.36,1.75,1.75,0,0,0-.57-1.37,2,2,0,0,0-1.43-.52,2,2,0,0,0-1.39.52,1.75,1.75,0,0,0-.57,1.37,1.7,1.7,0,0,0,.57,1.36,2,2,0,0,0,1.39.5"/><path class="cls-3" d="M146.89,117.41a8,8,0,0,0-1.47-2.7,6.09,6.09,0,0,0-2.33-1.72,7.9,7.9,0,0,0-3.15-.6,9.09,9.09,0,0,0-5,1.53,16.61,16.61,0,0,0-4.24,4.07v-4.13a.72.72,0,0,0-.23-.63,1,1,0,0,0-.63-.16h-2.13c-.6,0-.9.27-.9.79v9.6h-3.23a8.08,8.08,0,0,1-2.17-.24,3.63,3.63,0,0,1-1.4-.75v-8.54c0-.57-.3-.86-.9-.86H117c-.6,0-.9.29-.9.86v7.78a2.2,2.2,0,0,1-.32,1.41,1.87,1.87,0,0,1-1.33.34h-4.78a1.85,1.85,0,0,1-1.32-.34,2.13,2.13,0,0,1-.33-1.41v-18.3q0-.82-.72-.72l-2.47.34a.93.93,0,0,0-.5.22.83.83,0,0,0-.16.6V123a4.07,4.07,0,0,0,1.22,3.21,5.83,5.83,0,0,0,3.91,1.09h5.53c2.22,0,3.72-.58,4.47-1.72A4.32,4.32,0,0,0,121,126.8a6.13,6.13,0,0,0,2.33.43l.07,0h16.47a15.27,15.27,0,0,0,3.51-.35,5.77,5.77,0,0,0,2.34-1.08,4.24,4.24,0,0,0,1.29-1.95,9.51,9.51,0,0,0,.39-2.92,11.46,11.46,0,0,0-.51-3.54m-4.06,5.43a3.16,3.16,0,0,1-2.27.62h-9.94a26.49,26.49,0,0,1,1.93-2.73,20.15,20.15,0,0,1,2.22-2.36,11.29,11.29,0,0,1,2.4-1.67,5.6,5.6,0,0,1,2.53-.63,3.34,3.34,0,0,1,2.75,1.23,5.29,5.29,0,0,1,1,3.41,3,3,0,0,1-.62,2.13"/><path class="cls-3" d="M109,34.93c-4.1-5.17-7.75-12.62-12.11-12.79a24.55,24.55,0,0,0-8.09,1.59,25.13,25.13,0,0,0,1.59-8.09c-.17-4.36-7.63-8-12.79-12.11C75.89,2.17,74.89,1,73.7,0c-1.19,1-2.19,2.17-3.86,3.53-5.17,4.1-12.62,7.75-12.79,12.11a24.61,24.61,0,0,0,1.6,8.09,24.66,24.66,0,0,0-8.1-1.59c-4.36.17-8,7.62-12.11,12.79-1.36,1.67-2.55,2.67-3.53,3.86,1,1.18,2.17,2.19,3.53,3.86,4.1,5.16,7.75,12.62,12.11,12.79a25.19,25.19,0,0,0,8.1-1.59,24.61,24.61,0,0,0-1.6,8.09c.17,4.35,7.62,8,12.79,12.11,1.67,1.36,2.67,2.55,3.86,3.53,1.19-1,2.19-2.17,3.86-3.53,5.16-4.1,12.62-7.76,12.79-12.11a23,23,0,0,0-1.1-6.64c-2.38-.66-5-2.36-7-6.33l-9-19.74h0c-1.07-2.45-3.25-6.34-6.34-6.51.06,0,8.08-2.61,12.55,6.35l9,19.74A15.45,15.45,0,0,0,91.83,54a6.05,6.05,0,0,0,.65.51,5.8,5.8,0,0,0,2,.8,7.17,7.17,0,0,0,1.56.17h.13a6.67,6.67,0,0,0,3.12-.8c.28-.18.55-.38.83-.6,3-2.43,5.84-7.55,8.89-11.39,1.36-1.67,2.55-2.68,3.53-3.86-1-1.19-2.17-2.19-3.53-3.86M70,28a21,21,0,0,1,1.11,2.18l.9,2c-1.67,3.65-3.64,7.92-3.64,7.92h7.25l1.3,2.85H67.11s-2.46,7.94-7.71,9.36c0,0,7-16.08,10.6-24.28m7.53-5.44a12.89,12.89,0,0,0-8-2.71q-.42,0-.78,0l-.63-1.82a15.08,15.08,0,0,1,2.34.18A2.77,2.77,0,0,1,70.41,17a3.37,3.37,0,0,1,4.08-2.43A3.9,3.9,0,0,1,77,16c-.33.26-.62.52-.9.78a1.9,1.9,0,0,0-1.74-1.11,1.93,1.93,0,0,0-1.54.76,1.77,1.77,0,0,0-.34,1,1.64,1.64,0,0,0,1,1.55,14.35,14.35,0,0,1,4.42,2.62Z"/></g></g></g></svg>