<svg xmlns="http://www.w3.org/2000/svg" xmlns:xlink="http://www.w3.org/1999/xlink" viewBox="0 0 209.02 75.28"><defs><style>.cls-1{fill:none;}.cls-2{clip-path:url(#clip-path);}.cls-3{fill:#f16463;}.cls-4{fill:#2b3b46;}</style><clipPath id="clip-path" transform="translate(0)"><rect class="cls-1" width="209.02" height="75.28"/></clipPath></defs><title>Ресурс 1</title><g id="Слой_2" data-name="Слой 2"><g id="Layer_1" data-name="Layer 1"><g class="cls-2"><path class="cls-3" d="M206,33.89c-3.57-5-6.74-12.24-10.53-12.41a19.52,19.52,0,0,0-7,1.55,27.14,27.14,0,0,0,1.39-7.86c-.16-4.22-6.63-7.77-11.12-11.75C177.21,2.11,176.33,1,175.31,0c-1,1-1.91,2.11-3.36,3.42-4.49,4-11,7.53-11.12,11.75A26.49,26.49,0,0,0,162.22,23a19.57,19.57,0,0,0-7-1.55c-3.78.17-7,7.4-10.52,12.41-1.18,1.62-2.22,2.6-3.07,3.75.85,1.15,1.89,2.12,3.07,3.74,3.57,5,6.74,12.24,10.52,12.41a19.77,19.77,0,0,0,7-1.54,26.36,26.36,0,0,0-1.39,7.85c.15,4.23,6.63,7.77,11.12,11.75,1.45,1.32,2.32,2.47,3.36,3.43,1-1,1.9-2.11,3.35-3.43,4.49-4,11-7.52,11.12-11.75a25.33,25.33,0,0,0-1-6.44c-2.07-.64-4.39-2.29-6.12-6.14l-7.82-19.16h0c-.94-2.38-2.83-6.15-5.51-6.32,0,0,7-2.52,10.91,6.16l7.82,19.16a15.22,15.22,0,0,0,3,5,6.33,6.33,0,0,0,.56.49,4.91,4.91,0,0,0,1.7.78,5.45,5.45,0,0,0,1.36.16h.11A5.32,5.32,0,0,0,197.5,53a7.32,7.32,0,0,0,.72-.58c2.64-2.36,5.07-7.32,7.73-11,1.18-1.62,2.21-2.59,3.07-3.74-.86-1.15-1.89-2.13-3.07-3.75m-33.87-6.72a22.4,22.4,0,0,1,1,2.12l.78,1.92c-1.46,3.53-3.16,7.68-3.16,7.68H177l1.13,2.76h-8.52s-2.14,7.71-6.71,9.08l9.21-23.56m6.56-5.27a10.48,10.48,0,0,0-6.93-2.63c-.24,0-.46,0-.68,0l-.54-1.77a11.32,11.32,0,0,1,2,.18A2.87,2.87,0,0,1,176,14.13a3.38,3.38,0,0,1,2.14,1.38c-.29.25-.54.51-.78.76a1.66,1.66,0,0,0-1.52-1.08,1.63,1.63,0,0,0-1.33.74,1.79,1.79,0,0,0-.3,1,1.63,1.63,0,0,0,.88,1.51A12.09,12.09,0,0,1,178.92,21Z" transform="translate(0)"/><path class="cls-4" d="M13.57,67.68q0,.33-.36.33h-.86a2.12,2.12,0,0,1-.86-.13,1.46,1.46,0,0,1-.51-.37,1.88,1.88,0,0,1-.43-.83,4.07,4.07,0,0,1-.14-1.07v-.43a4.48,4.48,0,0,1-.7,1.17,5.17,5.17,0,0,1-1.09,1,6.14,6.14,0,0,1-1.34.71,4.37,4.37,0,0,1-1.46.26,5,5,0,0,1-2.63-.68,5.73,5.73,0,0,1-1.8-1.8,8.46,8.46,0,0,1-1-2.57,12.92,12.92,0,0,1-.34-3A12.45,12.45,0,0,1,.49,56.6a8.11,8.11,0,0,1,1.36-2.71,6,6,0,0,1,2-1.69,5.24,5.24,0,0,1,2.45-.58,5.33,5.33,0,0,1,2.2.51,4.65,4.65,0,0,1,1.88,1.59l0-1.24A.47.47,0,0,1,11,52h.86c.32,0,.48.18.48.53V64.25c0,.46,0,.85,0,1.16a2,2,0,0,0,.1.67.6.6,0,0,0,.63.4h.21c.21,0,.32.12.32.36Zm-3.19-11.6A4.68,4.68,0,0,0,8.7,54a4.1,4.1,0,0,0-2.29-.72,3.79,3.79,0,0,0-3.19,1.8,8.77,8.77,0,0,0-1.25,5,10.7,10.7,0,0,0,.33,2.8,6.53,6.53,0,0,0,.88,2,3.69,3.69,0,0,0,1.27,1.2,3,3,0,0,0,1.52.4,3.35,3.35,0,0,0,1.52-.35,4.75,4.75,0,0,0,1.28-.91,5.89,5.89,0,0,0,1-1.29,7.7,7.7,0,0,0,.64-1.48Z" transform="translate(0)"/><path class="cls-4" d="M18.44,63.35a10.49,10.49,0,0,0,.1,1.56A1.91,1.91,0,0,0,19,66a2.26,2.26,0,0,0,1.76.63,5.55,5.55,0,0,0,1-.09,3.42,3.42,0,0,0,.82-.27c.24-.09.39,0,.45.2l.18.77a.45.45,0,0,1-.3.56,4.82,4.82,0,0,1-1.09.35,6.23,6.23,0,0,1-1.36.15A5.37,5.37,0,0,1,18.78,68a3.08,3.08,0,0,1-1.36-.85,3.28,3.28,0,0,1-.76-1.75A18.76,18.76,0,0,1,16.53,63V53.52H14.77a.54.54,0,0,1-.24-.05c-.06,0-.09-.13-.09-.28v-.91c0-.15,0-.25.09-.28a.54.54,0,0,1,.24,0h1.76v-3.9a.81.81,0,0,1,.07-.41.53.53,0,0,1,.31-.19L18,47.29c.32,0,.48.13.48.53V52H22a.54.54,0,0,1,.24,0c.06,0,.09.13.09.28v.91c0,.15,0,.24-.09.28a.54.54,0,0,1-.24.05h-3.6Z" transform="translate(0)"/><path class="cls-4" d="M37.76,67.68c0,.22-.11.33-.35.33h-.87a2.15,2.15,0,0,1-.86-.13,1.46,1.46,0,0,1-.51-.37,2,2,0,0,1-.43-.83,4.07,4.07,0,0,1-.14-1.07v-.43a4.48,4.48,0,0,1-.7,1.17,5.17,5.17,0,0,1-1.09,1,5.92,5.92,0,0,1-1.34.71,4.32,4.32,0,0,1-1.46.26,5,5,0,0,1-2.63-.68,5.73,5.73,0,0,1-1.8-1.8,8.2,8.2,0,0,1-1-2.57,13.5,13.5,0,0,1,.14-6.66A8.3,8.3,0,0,1,26,53.89a6,6,0,0,1,2-1.69,5.27,5.27,0,0,1,2.45-.58,5.33,5.33,0,0,1,2.2.51,4.58,4.58,0,0,1,1.88,1.59l0-1.24a.47.47,0,0,1,.54-.53H36c.31,0,.47.18.47.53V64.25c0,.46,0,.85,0,1.16a2,2,0,0,0,.1.67.6.6,0,0,0,.63.4h.21c.22,0,.32.12.32.36Zm-3.19-11.6A4.62,4.62,0,0,0,32.89,54a4.09,4.09,0,0,0-2.28-.72,3.79,3.79,0,0,0-3.2,1.8,8.77,8.77,0,0,0-1.25,5,10.7,10.7,0,0,0,.33,2.8,6.53,6.53,0,0,0,.88,2,3.69,3.69,0,0,0,1.27,1.2,3,3,0,0,0,1.52.4,3.33,3.33,0,0,0,1.52-.35A4.46,4.46,0,0,0,33,65.25a5.89,5.89,0,0,0,1-1.29,7.7,7.7,0,0,0,.64-1.48Z" transform="translate(0)"/><path class="cls-4" d="M42,67.45c0,.37-.16.56-.48.56H40.6c-.32,0-.48-.19-.48-.56V52.55q0-.6.51-.6h.89q.48,0,.48.6l0,1.14a7.08,7.08,0,0,1,2.37-1.56A7.29,7.29,0,0,1,47,51.62a5,5,0,0,1,2.21.43,3.86,3.86,0,0,1,1.46,1.22,5,5,0,0,1,.81,1.88,11.63,11.63,0,0,1,.24,2.47v9.83c0,.37-.16.56-.48.56h-1c-.31,0-.47-.19-.47-.56V57.92a11.7,11.7,0,0,0-.14-1.85,4.17,4.17,0,0,0-.49-1.47,2.53,2.53,0,0,0-1-1,3.47,3.47,0,0,0-1.67-.36,5.28,5.28,0,0,0-2.38.64,8.27,8.27,0,0,0-2.1,1.5Z" transform="translate(0)"/><path class="cls-4" d="M68,67.68q0,.33-.36.33h-.86a2.12,2.12,0,0,1-.86-.13,1.46,1.46,0,0,1-.51-.37,1.88,1.88,0,0,1-.43-.83,4.07,4.07,0,0,1-.14-1.07v-.43a4.48,4.48,0,0,1-.7,1.17,5.17,5.17,0,0,1-1.09,1,6.14,6.14,0,0,1-1.34.71,4.37,4.37,0,0,1-1.46.26,5,5,0,0,1-2.63-.68,5.63,5.63,0,0,1-1.8-1.8,8.46,8.46,0,0,1-1.05-2.57,12.92,12.92,0,0,1-.34-3,12.45,12.45,0,0,1,.49-3.65,8.11,8.11,0,0,1,1.36-2.71,6,6,0,0,1,2-1.69,5.24,5.24,0,0,1,2.45-.58,5.33,5.33,0,0,1,2.2.51,4.65,4.65,0,0,1,1.88,1.59l0-1.24a.47.47,0,0,1,.54-.53h.86c.32,0,.48.18.48.53V64.25c0,.46,0,.85,0,1.16a2,2,0,0,0,.1.67.6.6,0,0,0,.63.4h.21c.21,0,.32.12.32.36Zm-3.19-11.6A4.68,4.68,0,0,0,63.08,54a4.1,4.1,0,0,0-2.29-.72,3.79,3.79,0,0,0-3.19,1.8,8.77,8.77,0,0,0-1.25,5,10.7,10.7,0,0,0,.33,2.8,6.53,6.53,0,0,0,.88,2,3.69,3.69,0,0,0,1.27,1.2,3,3,0,0,0,1.52.4,3.35,3.35,0,0,0,1.52-.35,4.75,4.75,0,0,0,1.28-.91,5.89,5.89,0,0,0,1-1.29,7.7,7.7,0,0,0,.64-1.48Z" transform="translate(0)"/><path class="cls-4" d="M85.75,63.25a5.16,5.16,0,0,1-.48,2.28A4.63,4.63,0,0,1,84,67.15a5.43,5.43,0,0,1-1.84.94,7.14,7.14,0,0,1-2.18.32,9,9,0,0,1-2.37-.33,12.93,12.93,0,0,1-2.22-.83.58.58,0,0,1-.33-.77l.54-1.83c.12-.4.36-.51.71-.34a9.12,9.12,0,0,0,3.76,1,2.58,2.58,0,0,0,1.6-.47,1.69,1.69,0,0,0,.18-2.43,4.44,4.44,0,0,0-1.36-.84l-2.36-1A5.45,5.45,0,0,1,76,59a4.26,4.26,0,0,1-.9-2.8,4.37,4.37,0,0,1,1.72-3.61,5.12,5.12,0,0,1,1.73-.87,6.86,6.86,0,0,1,2-.28,10.46,10.46,0,0,1,2.15.22,8.31,8.31,0,0,1,2.18.78c.19.11.31.22.32.33a1.35,1.35,0,0,1,0,.47l-.5,1.8a.46.46,0,0,1-.29.35.75.75,0,0,1-.43,0,11.72,11.72,0,0,0-1.64-.57,6.35,6.35,0,0,0-1.58-.23,1.89,1.89,0,0,0-1.42.48,1.52,1.52,0,0,0-.16,2,2.89,2.89,0,0,0,1.16.75L82.92,59a5.69,5.69,0,0,1,2,1.6,4.15,4.15,0,0,1,.82,2.67" transform="translate(0)"/><path class="cls-4" d="M92.22,51.85h3.37a.5.5,0,0,1,.57.57V54c0,.43-.2.64-.59.64H92.22v7.63a9.67,9.67,0,0,0,.08,1.31,2.42,2.42,0,0,0,.31,1,1.49,1.49,0,0,0,.54.52,1.8,1.8,0,0,0,.86.18,4.65,4.65,0,0,0,1-.11,7.56,7.56,0,0,0,.88-.29,1.42,1.42,0,0,1,.44,0c.12,0,.21.14.25.39l.3,1.66a.7.7,0,0,1-.42.84,8.46,8.46,0,0,1-1.57.55,7.52,7.52,0,0,1-1.77.21,6.16,6.16,0,0,1-2.07-.33A3.2,3.2,0,0,1,89.57,67,3.46,3.46,0,0,1,89,66.1,5,5,0,0,1,88.73,65a10.46,10.46,0,0,1-.1-1.33c0-.49,0-1,0-1.63V54.62h-1.4c-.28,0-.46,0-.53-.15a1.26,1.26,0,0,1-.12-.69V52.52c0-.45.18-.67.53-.67h1.52v-3.5a1.27,1.27,0,0,1,.12-.61.65.65,0,0,1,.48-.29l2.42-.36a.56.56,0,0,1,.41.08c.12.08.18.25.18.52Z" transform="translate(0)"/><path class="cls-4" d="M112.87,67.38q0,.63-.6.63h-1.43a2.38,2.38,0,0,1-1.73-.55,2.49,2.49,0,0,1-.72-1.41h-.06a5.83,5.83,0,0,1-1.86,1.68,4.91,4.91,0,0,1-2.46.68,5.26,5.26,0,0,1-2.73-.67A5.64,5.64,0,0,1,99.37,66a8,8,0,0,1-1.12-2.62,13.2,13.2,0,0,1-.36-3.12,12.25,12.25,0,0,1,.54-3.81,8.4,8.4,0,0,1,1.43-2.75A6,6,0,0,1,101.92,52a5.4,5.4,0,0,1,2.41-.57,4.85,4.85,0,0,1,2.23.53,4.18,4.18,0,0,1,1.59,1.4l.06-.9a.58.58,0,0,1,.63-.6h2.09c.41,0,.62.25.62.73V64.35a1.61,1.61,0,0,0,.11.68.42.42,0,0,0,.43.22h.24a.49.49,0,0,1,.54.56Zm-4.93-11a3.52,3.52,0,0,0-1.26-1.22,3.31,3.31,0,0,0-1.69-.48,2.7,2.7,0,0,0-1.3.33,3.29,3.29,0,0,0-1.07,1,5.18,5.18,0,0,0-.73,1.64,8.59,8.59,0,0,0-.27,2.28,10.55,10.55,0,0,0,.18,2,5.5,5.5,0,0,0,.57,1.63,3.15,3.15,0,0,0,1,1.12,2.51,2.51,0,0,0,1.43.41,2.73,2.73,0,0,0,1-.21,4.94,4.94,0,0,0,.92-.54,3.73,3.73,0,0,0,.72-.71,4.5,4.5,0,0,0,.47-.8Z" transform="translate(0)"/><path class="cls-4" d="M127.6,51.85c.48,0,.62.27.42.8l-5.88,17.26a14.48,14.48,0,0,1-1.09,2.52,6,6,0,0,1-1.35,1.65,5,5,0,0,1-1.79.91,8.76,8.76,0,0,1-2.36.29,7.56,7.56,0,0,1-.83,0,3.25,3.25,0,0,1-.75-.13q-.36-.14-.42-.33a1.22,1.22,0,0,1,0-.54l.21-1.73q.09-.6.54-.6a4.69,4.69,0,0,1,.58,0,4.82,4.82,0,0,0,.61.05,3.22,3.22,0,0,0,2.09-.57,4,4,0,0,0,1.13-1.73l.57-1.5-5.43-15.63a.66.66,0,0,1,0-.51c.06-.15.2-.22.42-.22H117a.83.83,0,0,1,.57.17,1,1,0,0,1,.27.5l3.28,10.93,3.13-10.83a.9.9,0,0,1,.9-.77Z" transform="translate(0)"/><path class="cls-4" d="M10.63,12.93a1.18,1.18,0,0,0-.86.35,1.25,1.25,0,0,0-.34.92,1.29,1.29,0,0,0,.34.93,1.18,1.18,0,0,0,.86.35,1.19,1.19,0,0,0,.86-.35,1.29,1.29,0,0,0,.34-.93,1.25,1.25,0,0,0-.34-.92,1.19,1.19,0,0,0-.86-.35" transform="translate(0)"/><path class="cls-4" d="M11.05,19.51h-.87q-.39,0-.39.54v8.22A9.18,9.18,0,0,1,9.7,29.7a1.83,1.83,0,0,1-.35.87,1.37,1.37,0,0,1-.7.46,4.46,4.46,0,0,1-1.21.13H4.06A4.54,4.54,0,0,1,2.84,31a1.35,1.35,0,0,1-.72-.46,1.87,1.87,0,0,1-.35-.89,9.5,9.5,0,0,1-.09-1.44V9.74c0-.32-.14-.45-.42-.41L.33,9.5C.11,9.53,0,9.69,0,10V29.52a3.82,3.82,0,0,0,.86,2.71,3.62,3.62,0,0,0,2.75.91H7.86a3.6,3.6,0,0,0,2.75-.92,3.87,3.87,0,0,0,.86-2.74V20.05q0-.54-.42-.54" transform="translate(0)"/><path class="cls-4" d="M23.36,15.48a1.19,1.19,0,0,0,.86-.35,1.33,1.33,0,0,0,.34-.93,1.3,1.3,0,0,0-.34-.92,1.19,1.19,0,0,0-.86-.35,1.18,1.18,0,0,0-.86.35,1.26,1.26,0,0,0-.34.92,1.29,1.29,0,0,0,.34.93,1.18,1.18,0,0,0,.86.35" transform="translate(0)"/><path class="cls-4" d="M26.85,12.93a1.16,1.16,0,0,0-.86.35,1.25,1.25,0,0,0-.35.92,1.29,1.29,0,0,0,.35.93,1.22,1.22,0,0,0,1.71,0,1.29,1.29,0,0,0,.35-.93,1.25,1.25,0,0,0-.35-.92,1.15,1.15,0,0,0-.85-.35" transform="translate(0)"/><path class="cls-4" d="M25.52,19.51h-.87q-.39,0-.39.54v8.22a9.18,9.18,0,0,1-.09,1.43,1.83,1.83,0,0,1-.35.87,1.33,1.33,0,0,1-.7.46,4.37,4.37,0,0,1-1.21.13H18.57A4.49,4.49,0,0,1,17.35,31a1.42,1.42,0,0,1-.73-.46,1.87,1.87,0,0,1-.34-.89,9.5,9.5,0,0,1-.09-1.44V9.74c0-.32-.14-.45-.42-.41l-.93.17c-.22,0-.33.19-.33.51V29.52a3.81,3.81,0,0,0,.85,2.71,3.62,3.62,0,0,0,2.75.91h4.23a3.62,3.62,0,0,0,2.75-.92,3.91,3.91,0,0,0,.85-2.74V20.05q0-.54-.42-.54" transform="translate(0)"/><path class="cls-4" d="M34.21,4.77H31.35a3.6,3.6,0,0,1-.72-2A1.58,1.58,0,0,1,31,1.58a1.36,1.36,0,0,1,1-.41,2.7,2.7,0,0,1,1.32.34c.16.09.27.06.33-.1l.18-.5A.31.31,0,0,0,33.73.5a3.12,3.12,0,0,0-.84-.38A3.38,3.38,0,0,0,32,0a2.48,2.48,0,0,0-1.72.64,2.41,2.41,0,0,0-.72,1.91,4.07,4.07,0,0,0,.69,2.22H28.8q-.21,0-.21.27v.64q0,.3.21.3h5.41q.21,0,.21-.3V5q0-.27-.21-.27" transform="translate(0)"/><path class="cls-4" d="M32,9.3l-1,.2c-.22,0-.33.2-.33.54V32.61c0,.35.15.53.45.53H32c.28,0,.42-.18.42-.53V9.74c0-.32-.14-.46-.39-.44" transform="translate(0)"/><path class="cls-4" d="M47.24,12.61a1.64,1.64,0,0,0,1.21-.49,1.74,1.74,0,0,0,.49-1.31,1.81,1.81,0,0,0-.49-1.34A1.65,1.65,0,0,0,47.24,9a1.68,1.68,0,0,0-1.24.5,1.82,1.82,0,0,0-.5,1.34,1.75,1.75,0,0,0,.5,1.31,1.67,1.67,0,0,0,1.24.49" transform="translate(0)"/><path class="cls-4" d="M51.63,12.61a1.64,1.64,0,0,0,1.21-.49,1.74,1.74,0,0,0,.49-1.31,1.81,1.81,0,0,0-.49-1.34A1.65,1.65,0,0,0,51.63,9a1.68,1.68,0,0,0-1.24.5,1.81,1.81,0,0,0-.49,1.34,1.74,1.74,0,0,0,.49,1.31,1.67,1.67,0,0,0,1.24.49" transform="translate(0)"/><path class="cls-4" d="M81.88,19.38a6.42,6.42,0,0,0-2.51.47,5.33,5.33,0,0,0-1.87,1.3,5.54,5.54,0,0,0-1.15,2A7.94,7.94,0,0,0,76,25.69a8.53,8.53,0,0,0,.24,2,7,7,0,0,0,.69,1.81H53.42a2.14,2.14,0,0,1-1.66-.5,2.45,2.45,0,0,1-.43-1.6V17.21q0-.77-.66-.66l-2.15.3a.66.66,0,0,0-.42.23,1.08,1.08,0,0,0-.12.6v1.1a20.24,20.24,0,0,0-3.76,1.87,12.16,12.16,0,0,0-2.45,2.05,7,7,0,0,0-1.33,2.14A6,6,0,0,0,40,27a4.63,4.63,0,0,0,.43,2.1,3.91,3.91,0,0,0,1.15,1.41,4.61,4.61,0,0,0,1.63.76,7.3,7.3,0,0,0,1.86.24,9,9,0,0,0,1.72-.17,6.72,6.72,0,0,0,1.57-.5q1.11,2.34,4.81,2.34h28a6.53,6.53,0,0,0,4.8-1.72,7.19,7.19,0,0,0,1.72-5.26,7.31,7.31,0,0,0-1.57-5,5.53,5.53,0,0,0-4.32-1.74m-33.9,8a7.2,7.2,0,0,1-1.22.38,5.44,5.44,0,0,1-1.26.16A2.57,2.57,0,0,1,44,27.51a1.28,1.28,0,0,1-.54-1.12,3.15,3.15,0,0,1,1.24-2.33A11,11,0,0,1,48,22.15Zm35.59,1.37a2.77,2.77,0,0,1-2,.73H80.33a4.74,4.74,0,0,1-.72-1.5,6.18,6.18,0,0,1-.24-1.73A6,6,0,0,1,79.49,25a3.23,3.23,0,0,1,.4-1.05,2.08,2.08,0,0,1,.78-.75,2.38,2.38,0,0,1,1.21-.29,2.28,2.28,0,0,1,1.19.29,2.13,2.13,0,0,1,.77.75,3.23,3.23,0,0,1,.4,1.05,6,6,0,0,1,.12,1.22,3.29,3.29,0,0,1-.79,2.5" transform="translate(0)"/><path class="cls-4" d="M81.79,15.68A1.7,1.7,0,0,0,83,15.2a1.78,1.78,0,0,0,.49-1.32A1.83,1.83,0,0,0,83,12.54a1.68,1.68,0,0,0-1.24-.5,1.65,1.65,0,0,0-1.21.5,1.83,1.83,0,0,0-.49,1.34,1.78,1.78,0,0,0,.49,1.32,1.67,1.67,0,0,0,1.21.48" transform="translate(0)"/><path class="cls-4" d="M97.27,37.14a1.68,1.68,0,0,0-1.24.5A1.83,1.83,0,0,0,95.54,39,1.78,1.78,0,0,0,96,40.3a1.7,1.7,0,0,0,1.24.48,1.67,1.67,0,0,0,1.21-.48A1.78,1.78,0,0,0,99,39a1.83,1.83,0,0,0-.49-1.34,1.65,1.65,0,0,0-1.21-.5" transform="translate(0)"/><path class="cls-4" d="M101.66,37.14a1.68,1.68,0,0,0-1.24.5A1.83,1.83,0,0,0,99.93,39a1.78,1.78,0,0,0,.49,1.32,1.7,1.7,0,0,0,1.24.48,1.67,1.67,0,0,0,1.21-.48,1.78,1.78,0,0,0,.49-1.32,1.83,1.83,0,0,0-.49-1.34,1.65,1.65,0,0,0-1.21-.5" transform="translate(0)"/><path class="cls-4" d="M121.56,15a1.69,1.69,0,0,0,1.24-.48,1.76,1.76,0,0,0,.5-1.32,1.81,1.81,0,0,0-.5-1.33,1.75,1.75,0,0,0-2.45,0,1.8,1.8,0,0,0-.49,1.33,1.75,1.75,0,0,0,.49,1.32,1.68,1.68,0,0,0,1.21.48" transform="translate(0)"/><path class="cls-4" d="M127.66,23.59A8,8,0,0,0,126.39,21a5.65,5.65,0,0,0-2-1.67,6.22,6.22,0,0,0-2.74-.58,7.29,7.29,0,0,0-4.37,1.48,15.21,15.21,0,0,0-3.7,4v-4a.78.78,0,0,0-.19-.62.88.88,0,0,0-.55-.15H111a.68.68,0,0,0-.77.77v9.31h-2.81a6.09,6.09,0,0,1-1.88-.23,3.17,3.17,0,0,1-1.23-.73V20.22c0-.56-.26-.84-.77-.84h-1.8q-.78,0-.78.84v7.54a2.26,2.26,0,0,1-.28,1.37,1.5,1.5,0,0,1-1.15.33H95.33a1.5,1.5,0,0,1-1.15-.33,2.25,2.25,0,0,1-.29-1.37V10c0-.54-.21-.77-.63-.71l-2.15.34a.76.76,0,0,0-.43.21.93.93,0,0,0-.13.59V29a4.2,4.2,0,0,0,1.06,3.12A4.61,4.61,0,0,0,95,33.14h4.81c1.93,0,3.23-.56,3.88-1.67a3.83,3.83,0,0,0,1.47,1.23,4.92,4.92,0,0,0,2,.42l.06,0h14.31a11.67,11.67,0,0,0,3-.34,4.61,4.61,0,0,0,2-1,4.07,4.07,0,0,0,1.12-1.89,10,10,0,0,0,.35-2.83,12.2,12.2,0,0,0-.45-3.44m-3.53,5.27a2.58,2.58,0,0,1-2,.6h-8.63a24,24,0,0,1,1.67-2.65,18.62,18.62,0,0,1,1.93-2.29,10.06,10.06,0,0,1,2.09-1.62,4.4,4.4,0,0,1,2.19-.61,2.8,2.8,0,0,1,2.4,1.2,5.6,5.6,0,0,1,.86,3.3,3.1,3.1,0,0,1-.54,2.07" transform="translate(0)"/></g></g></g></svg>