<svg xmlns="http://www.w3.org/2000/svg" viewBox="0 0 77.58 77.58"><defs><style>.cls-1{fill:#fff;}</style></defs><title>Ресурс 1</title><g id="Слой_2" data-name="Слой 2"><g id="Слой_1-2" data-name="Слой 1"><path class="cls-1" d="M74.05,34.93C70,29.76,66.29,22.31,61.94,22.14a24.55,24.55,0,0,0-8.09,1.59,25.13,25.13,0,0,0,1.59-8.09c-.17-4.36-7.63-8-12.79-12.11C41,2.17,40,1,38.79,0,37.6,1,36.6,2.17,34.93,3.53c-5.17,4.1-12.62,7.75-12.79,12.11a24.86,24.86,0,0,0,1.59,8.09,24.55,24.55,0,0,0-8.09-1.59c-4.36.17-8,7.62-12.11,12.79C2.17,36.6,1,37.6,0,38.79,1,40,2.17,41,3.53,42.65c4.1,5.16,7.75,12.62,12.11,12.79a25.08,25.08,0,0,0,8.09-1.59,24.86,24.86,0,0,0-1.59,8.09c.17,4.35,7.62,8,12.79,12.11,1.67,1.36,2.67,2.55,3.86,3.53,1.18-1,2.19-2.17,3.86-3.53,5.16-4.1,12.62-7.76,12.79-12.11a23.67,23.67,0,0,0-1.1-6.64c-2.38-.66-5.06-2.36-7-6.33l-9-19.74h0C37.22,26.78,35,22.89,32,22.72c.06,0,8.07-2.61,12.55,6.35l9,19.74A15.57,15.57,0,0,0,56.91,54a6.15,6.15,0,0,0,.66.51,5.83,5.83,0,0,0,1.94.8,7.26,7.26,0,0,0,1.57.17h.13a6.6,6.6,0,0,0,3.11-.8q.42-.27.84-.6c3-2.43,5.83-7.55,8.89-11.39C75.4,41,76.6,40,77.58,38.79c-1-1.19-2.18-2.19-3.53-3.86M35.08,28a19.17,19.17,0,0,1,1.12,2.18l.9,2c-1.67,3.65-3.64,7.92-3.64,7.92h7.25L42,42.93H32.2s-2.46,7.94-7.72,9.36L35.08,28m7.54-5.44a12.89,12.89,0,0,0-8-2.71c-.28,0-.54,0-.79,0l-.63-1.82a15.11,15.11,0,0,1,2.35.18A2.63,2.63,0,0,1,35.5,17a3.37,3.37,0,0,1,4.08-2.43A3.9,3.9,0,0,1,42,16c-.33.26-.62.52-.9.78a1.9,1.9,0,0,0-1.74-1.11,1.93,1.93,0,0,0-1.54.76,1.77,1.77,0,0,0-.34,1,1.64,1.64,0,0,0,1,1.55A14.35,14.35,0,0,1,43,21.63Z"/></g></g></svg>