<svg id="Слой_1" data-name="Слой 1" xmlns="http://www.w3.org/2000/svg" xmlns:xlink="http://www.w3.org/1999/xlink" viewBox="0 0 165.09 165.09">
    <defs>
        <style>
	        .cls-1 {
	            fill: none;
	        }
	        .cls-2 {
	            clip-path: url(#clip-path);
	        }
	        .cls-3 {
	            fill: #ef6566;
	        }
          .cls-4 {
              fill: #e93e1b;
              mix-blend-mode: hard-light;
              animation-name: opacity;
              animation-iteration-count: infinite;
              opacity: 0;
          }
          @keyframes opacity {
              50% {
                  opacity: 1;
              }
          }

          .cls-4:nth-child(1) {
                      animation-duration: 3s;
          }
          .cls-4:nth-child(2) {
                      animation-duration: 6s;
                      animation-delay: .9s;
          }
          .cls-4:nth-child(3) {
                      animation-duration: 5s;
          }
          .cls-4:nth-child(4) {
                      animation-duration: 4s;
                      animation-delay: 2s;
          }
          .cls-4:nth-child(5) {
                      animation-duration: 7.51s;
                      animation-delay: .3s;
          }
          .cls-4:nth-child(6) {
                      animation-duration: 5.58s;
          }
          .cls-4:nth-child(7) {
                      animation-duration: 3.52s;
          }
          .cls-4:nth-child(8) {
                      animation-duration: 3.35s;
          }
          .cls-4:nth-child(9) {
                      animation-duration: 5.49s;
          }
          .cls-4:nth-child(10) {
                      animation-duration: 4.52s;
          }
          .cls-4:nth-child(11) {
                      animation-duration: 5.64s;
          }
          .cls-4:nth-child(12) {
                      animation-duration: 5.79s;
                      animation-delay: 1s;
          }
        </style>
        <clipPath id="clip-path" transform="translate(-586.77 -143.15)">
            <rect class="cls-1" width="1190.55" height="841.89" />
        </clipPath>
    </defs>
    <title>atanastay_brandbook_2019_3-3</title>
    <g class="cls-2">
    		<g class="cls-4">
	        <path class="cls-3" d="M654,151a9.85,9.85,0,0,0-1,.27l-7.08,2.53,7.08,2.52a7.89,7.89,0,0,0,1,.28c.37-.45.86-1.16,1.22-1.68.24-.35.51-.74.79-1.12-.28-.39-.55-.77-.79-1.13s-.85-1.22-1.22-1.67" transform="translate(-586.77 -143.15)" />
	        <path class="cls-3" d="M647.88,161.46l-2.52-7.08-2.52,7.08a7.89,7.89,0,0,0-.28,1c.45.37,1.16.86,1.67,1.21l1.13.8c.39-.29.77-.55,1.13-.8s1.22-.84,1.67-1.21a7.89,7.89,0,0,0-.28-1" transform="translate(-586.77 -143.15)" />
	        <path class="cls-3" d="M637.72,151.3a7.72,7.72,0,0,0-1-.27c-.37.45-.86,1.16-1.22,1.67s-.51.74-.79,1.13l.79,1.12c.36.52.85,1.23,1.22,1.68a7.35,7.35,0,0,0,1-.28l7.08-2.52Z" transform="translate(-586.77 -143.15)" />
	        <path class="cls-3" d="M642.84,146.2l2.52,7.08,2.52-7.09a7.74,7.74,0,0,0,.28-1c-.45-.37-1.16-.86-1.67-1.22s-.74-.51-1.13-.79l-1.12.79c-.52.36-1.23.85-1.68,1.22a7.89,7.89,0,0,0,.28,1" transform="translate(-586.77 -143.15)" />
        </g>
				<g class="cls-4">
	        <path class="cls-3" d="M701.94,151a9.85,9.85,0,0,0-1,.27l-7.08,2.53,7.08,2.52a7.89,7.89,0,0,0,1,.28c.37-.45.86-1.16,1.22-1.68.24-.35.51-.74.79-1.12-.28-.39-.55-.77-.79-1.13s-.85-1.22-1.22-1.67" transform="translate(-586.77 -143.15)" />
	        <path class="cls-3" d="M695.79,161.46l-2.52-7.08-2.52,7.08a7.89,7.89,0,0,0-.28,1c.45.37,1.16.86,1.67,1.21s.75.52,1.13.8c.39-.29.77-.55,1.13-.8s1.22-.84,1.67-1.21a7.89,7.89,0,0,0-.28-1" transform="translate(-586.77 -143.15)" />
	        <path class="cls-3" d="M685.64,151.3a8.39,8.39,0,0,0-1-.27c-.37.45-.86,1.16-1.22,1.67s-.51.74-.79,1.13c.29.39.55.77.79,1.12.36.52.85,1.23,1.22,1.68a7.89,7.89,0,0,0,1-.28l7.07-2.52Z" transform="translate(-586.77 -143.15)" />
	        <path class="cls-3" d="M690.75,146.2l2.52,7.08,2.52-7.09a7.74,7.74,0,0,0,.28-1c-.45-.37-1.16-.86-1.67-1.22s-.74-.51-1.13-.79l-1.12.79c-.52.36-1.23.85-1.68,1.22a7.89,7.89,0,0,0,.28,1" transform="translate(-586.77 -143.15)" />
				</g>
				<g class="cls-4">
	        <path class="cls-3" d="M606.12,198.94a9.85,9.85,0,0,0-1,.27L598,201.74l7.09,2.52a7.89,7.89,0,0,0,1,.28c.37-.45.86-1.16,1.21-1.68.25-.35.52-.74.8-1.12-.29-.39-.55-.77-.79-1.13-.36-.51-.85-1.22-1.22-1.67" transform="translate(-586.77 -143.15)" />
	        <path class="cls-3" d="M600,209.37l-2.52-7.08-2.52,7.08a7.89,7.89,0,0,0-.28,1c.45.37,1.16.86,1.67,1.21l1.13.8c.39-.29.77-.55,1.13-.8s1.22-.84,1.67-1.21a7.89,7.89,0,0,0-.28-1" transform="translate(-586.77 -143.15)" />
	        <path class="cls-3" d="M589.81,199.21a7.72,7.72,0,0,0-1-.27c-.37.45-.86,1.16-1.22,1.67-.24.36-.51.74-.79,1.13l.79,1.12c.36.52.85,1.23,1.22,1.68a7.35,7.35,0,0,0,1-.28l7.08-2.52Z" transform="translate(-586.77 -143.15)" />
	        <path class="cls-3" d="M594.93,194.11l2.52,7.08L600,194.1a7.74,7.74,0,0,0,.28-1c-.45-.37-1.16-.86-1.67-1.22s-.74-.51-1.13-.79l-1.12.79c-.52.36-1.23.85-1.68,1.22a7.89,7.89,0,0,0,.28,1" transform="translate(-586.77 -143.15)" />
        </g>
				<g class="cls-4">
	        <path class="cls-3" d="M654,198.94a9.85,9.85,0,0,0-1,.27l-7.08,2.53,7.08,2.52a7.89,7.89,0,0,0,1,.28c.37-.45.86-1.16,1.22-1.68.24-.35.51-.74.79-1.12-.28-.39-.55-.77-.79-1.13-.36-.51-.85-1.22-1.22-1.67" transform="translate(-586.77 -143.15)" />
	        <path class="cls-3" d="M647.88,209.37l-2.52-7.08-2.52,7.08a7.89,7.89,0,0,0-.28,1c.45.37,1.16.86,1.67,1.21l1.13.8c.39-.29.77-.55,1.13-.8s1.22-.84,1.67-1.21a7.89,7.89,0,0,0-.28-1" transform="translate(-586.77 -143.15)" />
	        <path class="cls-3" d="M637.72,199.21a7.72,7.72,0,0,0-1-.27c-.37.45-.86,1.16-1.22,1.67-.24.36-.51.74-.79,1.13l.79,1.12c.36.52.85,1.23,1.22,1.68a7.35,7.35,0,0,0,1-.28l7.08-2.52Z" transform="translate(-586.77 -143.15)" />
	        <path class="cls-3" d="M642.84,194.11l2.52,7.08,2.52-7.09a7.74,7.74,0,0,0,.28-1c-.45-.37-1.16-.86-1.67-1.22s-.74-.51-1.13-.79l-1.12.79c-.52.36-1.23.85-1.68,1.22a7.89,7.89,0,0,0,.28,1" transform="translate(-586.77 -143.15)" />
				</g>
				<g class="cls-4">
	        <path class="cls-3" d="M701.94,198.94a9.85,9.85,0,0,0-1,.27l-7.08,2.53,7.08,2.52a7.89,7.89,0,0,0,1,.28c.37-.45.86-1.16,1.22-1.68.24-.35.51-.74.79-1.12-.28-.39-.55-.77-.79-1.13-.36-.51-.85-1.22-1.22-1.67" transform="translate(-586.77 -143.15)" />
	        <path class="cls-3" d="M695.79,209.37l-2.52-7.08-2.52,7.08a7.89,7.89,0,0,0-.28,1c.45.37,1.16.86,1.67,1.21s.75.52,1.13.8c.39-.29.77-.55,1.13-.8s1.22-.84,1.67-1.21a7.89,7.89,0,0,0-.28-1" transform="translate(-586.77 -143.15)" />
	        <path class="cls-3" d="M685.64,199.21a8.39,8.39,0,0,0-1-.27c-.37.45-.86,1.16-1.22,1.67-.24.36-.51.74-.79,1.13.29.39.55.77.79,1.12.36.52.85,1.23,1.22,1.68a7.89,7.89,0,0,0,1-.28l7.07-2.52Z" transform="translate(-586.77 -143.15)" />
	        <path class="cls-3" d="M690.75,194.11l2.52,7.08,2.52-7.09a7.74,7.74,0,0,0,.28-1c-.45-.37-1.16-.86-1.67-1.22s-.74-.51-1.13-.79l-1.12.79c-.52.36-1.23.85-1.68,1.22a7.89,7.89,0,0,0,.28,1" transform="translate(-586.77 -143.15)" />
				</g>
				<g class="cls-4">
	        <path class="cls-3" d="M749.85,198.94a9.85,9.85,0,0,0-1,.27l-7.08,2.53,7.08,2.52a7.89,7.89,0,0,0,1,.28c.37-.45.86-1.16,1.22-1.68.24-.35.51-.74.79-1.12-.28-.39-.55-.77-.79-1.13-.36-.51-.85-1.22-1.22-1.67" transform="translate(-586.77 -143.15)" />
	        <path class="cls-3" d="M743.7,209.37l-2.52-7.08-2.52,7.08a7.89,7.89,0,0,0-.28,1c.45.37,1.16.86,1.67,1.21s.75.52,1.13.8c.39-.29.77-.55,1.13-.8.51-.35,1.22-.84,1.67-1.21a7.89,7.89,0,0,0-.28-1" transform="translate(-586.77 -143.15)" />
	        <path class="cls-3" d="M733.55,199.21a8.39,8.39,0,0,0-1-.27c-.37.45-.86,1.16-1.22,1.67-.24.36-.51.74-.79,1.13.29.39.55.77.79,1.12.36.52.85,1.23,1.22,1.68a7.89,7.89,0,0,0,1-.28l7.07-2.52Z" transform="translate(-586.77 -143.15)" />
	        <path class="cls-3" d="M738.66,194.11l2.52,7.08,2.52-7.09a7.74,7.74,0,0,0,.28-1c-.45-.37-1.16-.86-1.67-1.22-.36-.24-.74-.51-1.13-.79l-1.12.79c-.52.36-1.23.85-1.68,1.22a7.89,7.89,0,0,0,.28,1" transform="translate(-586.77 -143.15)" />
				</g>
				<g class="cls-4">
	        <path class="cls-3" d="M606.12,246.85a9.85,9.85,0,0,0-1,.27L598,249.65l7.09,2.52a7.89,7.89,0,0,0,1,.28c.37-.45.86-1.16,1.21-1.68.25-.35.52-.74.8-1.12-.29-.39-.55-.77-.79-1.13-.36-.51-.85-1.22-1.22-1.67" transform="translate(-586.77 -143.15)" />
	        <path class="cls-3" d="M600,257.28l-2.52-7.08-2.52,7.08a7.89,7.89,0,0,0-.28,1c.45.37,1.16.86,1.67,1.21l1.13.8c.39-.29.77-.55,1.13-.8s1.22-.84,1.67-1.21a7.89,7.89,0,0,0-.28-1" transform="translate(-586.77 -143.15)" />
	        <path class="cls-3" d="M589.81,247.12a7.72,7.72,0,0,0-1-.27c-.37.45-.86,1.16-1.22,1.67-.24.36-.51.74-.79,1.13l.79,1.12c.36.52.85,1.23,1.22,1.68a7.35,7.35,0,0,0,1-.28l7.08-2.52Z" transform="translate(-586.77 -143.15)" />
	        <path class="cls-3" d="M594.93,242l2.52,7.08L600,242a7.74,7.74,0,0,0,.28-1c-.45-.37-1.16-.86-1.67-1.22s-.74-.51-1.13-.79l-1.12.79c-.52.36-1.23.85-1.68,1.22a7.89,7.89,0,0,0,.28,1" transform="translate(-586.77 -143.15)" />
				</g>
				<g class="cls-4">
	        <path class="cls-3" d="M654,246.85a9.85,9.85,0,0,0-1,.27l-7.08,2.53,7.08,2.52a7.89,7.89,0,0,0,1,.28c.37-.45.86-1.16,1.22-1.68.24-.35.51-.74.79-1.12-.28-.39-.55-.77-.79-1.13-.36-.51-.85-1.22-1.22-1.67" transform="translate(-586.77 -143.15)" />
	        <path class="cls-3" d="M647.88,257.28l-2.52-7.08-2.52,7.08a7.89,7.89,0,0,0-.28,1c.45.37,1.16.86,1.67,1.21l1.13.8c.39-.29.77-.55,1.13-.8s1.22-.84,1.67-1.21a7.89,7.89,0,0,0-.28-1" transform="translate(-586.77 -143.15)" />
	        <path class="cls-3" d="M637.72,247.12a7.72,7.72,0,0,0-1-.27c-.37.45-.86,1.16-1.22,1.67-.24.36-.51.74-.79,1.13l.79,1.12c.36.52.85,1.23,1.22,1.68a7.35,7.35,0,0,0,1-.28l7.08-2.52Z" transform="translate(-586.77 -143.15)" />
	        <path class="cls-3" d="M642.84,242l2.52,7.08,2.52-7.09a7.74,7.74,0,0,0,.28-1c-.45-.37-1.16-.86-1.67-1.22s-.74-.51-1.13-.79l-1.12.79c-.52.36-1.23.85-1.68,1.22a7.89,7.89,0,0,0,.28,1" transform="translate(-586.77 -143.15)" />
				</g>
				<g class="cls-4">
	        <path class="cls-3" d="M701.94,246.85a9.85,9.85,0,0,0-1,.27l-7.08,2.53,7.08,2.52a7.89,7.89,0,0,0,1,.28c.37-.45.86-1.16,1.22-1.68.24-.35.51-.74.79-1.12-.28-.39-.55-.77-.79-1.13-.36-.51-.85-1.22-1.22-1.67" transform="translate(-586.77 -143.15)" />
	        <path class="cls-3" d="M695.79,257.28l-2.52-7.08-2.52,7.08a7.89,7.89,0,0,0-.28,1c.45.37,1.16.86,1.67,1.21s.75.52,1.13.8c.39-.29.77-.55,1.13-.8s1.22-.84,1.67-1.21a7.89,7.89,0,0,0-.28-1" transform="translate(-586.77 -143.15)" />
	        <path class="cls-3" d="M685.64,247.12a8.39,8.39,0,0,0-1-.27c-.37.45-.86,1.16-1.22,1.67-.24.36-.51.74-.79,1.13.29.39.55.77.79,1.12.36.52.85,1.23,1.22,1.68a7.89,7.89,0,0,0,1-.28l7.07-2.52Z" transform="translate(-586.77 -143.15)" />
	        <path class="cls-3" d="M690.75,242l2.52,7.08,2.52-7.09a7.74,7.74,0,0,0,.28-1c-.45-.37-1.16-.86-1.67-1.22s-.74-.51-1.13-.79l-1.12.79c-.52.36-1.23.85-1.68,1.22a7.89,7.89,0,0,0,.28,1" transform="translate(-586.77 -143.15)" />
				</g>
				<g class="cls-4">
	        <path class="cls-3" d="M749.85,246.85a9.85,9.85,0,0,0-1,.27l-7.08,2.53,7.08,2.52a7.89,7.89,0,0,0,1,.28c.37-.45.86-1.16,1.22-1.68.24-.35.51-.74.79-1.12-.28-.39-.55-.77-.79-1.13-.36-.51-.85-1.22-1.22-1.67" transform="translate(-586.77 -143.15)" />
	        <path class="cls-3" d="M743.7,257.28l-2.52-7.08-2.52,7.08a7.89,7.89,0,0,0-.28,1c.45.37,1.16.86,1.67,1.21s.75.52,1.13.8c.39-.29.77-.55,1.13-.8.51-.35,1.22-.84,1.67-1.21a7.89,7.89,0,0,0-.28-1" transform="translate(-586.77 -143.15)" />
	        <path class="cls-3" d="M733.55,247.12a8.39,8.39,0,0,0-1-.27c-.37.45-.86,1.16-1.22,1.67-.24.36-.51.74-.79,1.13.29.39.55.77.79,1.12.36.52.85,1.23,1.22,1.68a7.89,7.89,0,0,0,1-.28l7.07-2.52Z" transform="translate(-586.77 -143.15)" />
	        <path class="cls-3" d="M738.66,242l2.52,7.08L743.7,242a7.74,7.74,0,0,0,.28-1c-.45-.37-1.16-.86-1.67-1.22-.36-.24-.74-.51-1.13-.79l-1.12.79c-.52.36-1.23.85-1.68,1.22a7.89,7.89,0,0,0,.28,1" transform="translate(-586.77 -143.15)" />
				</g>
				<g class="cls-4">
	        <path class="cls-3" d="M654,294.76a9.85,9.85,0,0,0-1,.27l-7.08,2.53,7.08,2.52a7.89,7.89,0,0,0,1,.28c.37-.45.86-1.16,1.22-1.68.24-.35.51-.74.79-1.12-.28-.39-.55-.77-.79-1.13s-.85-1.22-1.22-1.67" transform="translate(-586.77 -143.15)" />
	        <path class="cls-3" d="M647.88,305.19l-2.52-7.08-2.52,7.08a7.89,7.89,0,0,0-.28,1c.45.37,1.16.86,1.67,1.21l1.13.8c.39-.29.77-.55,1.13-.8s1.22-.84,1.67-1.21a7.89,7.89,0,0,0-.28-1" transform="translate(-586.77 -143.15)" />
	        <path class="cls-3" d="M637.72,295a7.72,7.72,0,0,0-1-.27c-.37.45-.86,1.16-1.22,1.67s-.51.74-.79,1.13l.79,1.12c.36.52.85,1.23,1.22,1.68a7.35,7.35,0,0,0,1-.28l7.08-2.52Z" transform="translate(-586.77 -143.15)" />
	        <path class="cls-3" d="M642.84,289.93l2.52,7.08,2.52-7.09a7.74,7.74,0,0,0,.28-1c-.45-.37-1.16-.86-1.67-1.22s-.74-.51-1.13-.79l-1.12.79c-.52.36-1.23.85-1.68,1.22a7.89,7.89,0,0,0,.28,1" transform="translate(-586.77 -143.15)" />
				</g>
				<g class="cls-4">
	        <path class="cls-3" d="M701.94,294.76a9.85,9.85,0,0,0-1,.27l-7.08,2.53,7.08,2.52a7.89,7.89,0,0,0,1,.28c.37-.45.86-1.16,1.22-1.68.24-.35.51-.74.79-1.12-.28-.39-.55-.77-.79-1.13s-.85-1.22-1.22-1.67" transform="translate(-586.77 -143.15)" />
	        <path class="cls-3" d="M695.79,305.19l-2.52-7.08-2.52,7.08a7.89,7.89,0,0,0-.28,1c.45.37,1.16.86,1.67,1.21s.75.52,1.13.8c.39-.29.77-.55,1.13-.8s1.22-.84,1.67-1.21a7.89,7.89,0,0,0-.28-1" transform="translate(-586.77 -143.15)" />
	        <path class="cls-3" d="M685.64,295a8.39,8.39,0,0,0-1-.27c-.37.45-.86,1.16-1.22,1.67s-.51.74-.79,1.13c.29.39.55.77.79,1.12.36.52.85,1.23,1.22,1.68a7.89,7.89,0,0,0,1-.28l7.07-2.52Z" transform="translate(-586.77 -143.15)" />
	        <path class="cls-3" d="M690.75,289.93l2.52,7.08,2.52-7.09a7.74,7.74,0,0,0,.28-1c-.45-.37-1.16-.86-1.67-1.22s-.74-.51-1.13-.79l-1.12.79c-.52.36-1.23.85-1.68,1.22a7.89,7.89,0,0,0,.28,1" transform="translate(-586.77 -143.15)" />
				</g>
    </g>
</svg>