<svg xmlns="http://www.w3.org/2000/svg" viewBox="0 0 165.07 165.06">
    <defs>
        <style>
	        .cls-1 {
	            fill: #fce88b;
	        }
	        .cls-4 {
	            animation-name: opacity;
	            animation-iteration-count: infinite;
	            opacity: 0;
	        }
	        @keyframes opacity {
	            50% {
	                opacity: 1;
	            }
	        }

	        .cls-4:nth-child(1) {
	                    animation-duration: 3s;
	        }
	        .cls-4:nth-child(2) {
	                    animation-duration: 6s;
	                    animation-delay: .9s;
	        }
	        .cls-4:nth-child(3) {
	                    animation-duration: 5s;
	        }
	        .cls-4:nth-child(4) {
	                    animation-duration: 4s;
	                    animation-delay: 2s;
	        }
	        .cls-4:nth-child(5) {
	                    animation-duration: 7.51s;
	                    animation-delay: .3s;
	        }
	        .cls-4:nth-child(6) {
	                    animation-duration: 5.58s;
	        }
	        .cls-4:nth-child(7) {
	                    animation-duration: 3.52s;
	        }
	        .cls-4:nth-child(8) {
	                    animation-duration: 3.35s;
	        }
	        .cls-4:nth-child(9) {
	                    animation-duration: 5.49s;
	        }
	        .cls-4:nth-child(10) {
	                    animation-duration: 4.52s;
	        }
	        .cls-4:nth-child(11) {
	                    animation-duration: 5.64s;
	        }
	        .cls-4:nth-child(12) {
	                    animation-duration: 5.79s;
	                    animation-delay: 1s;
	        }
            .cls-4:nth-child(13) {
                        animation-duration: 4.97s;
                        animation-delay: .2s;
            }
            .cls-4:nth-child(14) {
                        animation-duration: 4.14s;
            }
            .cls-4:nth-child(15) {
                        animation-duration: 7.52s;
            }
            .cls-4:nth-child(16) {
                        animation-duration: 3.39s;
            }
        </style>
    </defs>
    <title>Ресурс 1</title>
    <g id="Слой_2" data-name="Слой 2">
     		<g id="Слой_1-2" data-name="Слой 1">
        	<g class="cls-4">
            <path class="cls-1" d="M67.21,7.85a8.68,8.68,0,0,0-1,.27l-7.08,2.53,7.08,2.52c.33.11.66.2,1,.28.37-.45.86-1.16,1.22-1.68.24-.35.51-.74.79-1.12-.28-.39-.55-.77-.79-1.13s-.85-1.22-1.22-1.67" />
            <path class="cls-1" d="M61.09,18.31l-2.52-7.08-2.52,7.08a6.72,6.72,0,0,0-.28,1c.45.37,1.16.86,1.67,1.21l1.13.8c.39-.29.77-.55,1.13-.8s1.22-.84,1.67-1.21a6.72,6.72,0,0,0-.28-1" />
            <path class="cls-1" d="M50.93,8.15a5.92,5.92,0,0,0-1-.27c-.37.44-.86,1.16-1.22,1.66s-.51.75-.79,1.14l.79,1.11c.36.53.85,1.23,1.22,1.68a6,6,0,0,0,1-.28L58,10.67Z" />
            <path class="cls-1" d="M56.05,3l2.52,7.08L61.09,3a7.47,7.47,0,0,0,.28-1c-.45-.37-1.16-.86-1.67-1.22L58.57,0,57.45.82c-.52.36-1.23.85-1.68,1.22a7.47,7.47,0,0,0,.28,1" />
					</g>
					<g class="cls-4">
            <path class="cls-1" d="M19.29,7.85a8.68,8.68,0,0,0-1,.27l-7.08,2.53,7.08,2.52c.33.11.66.2,1,.28.37-.45.86-1.16,1.22-1.68.24-.35.51-.74.79-1.12-.28-.39-.55-.77-.79-1.13s-.85-1.22-1.22-1.67" />
            <path class="cls-1" d="M13.17,18.31l-2.52-7.08L8.13,18.31a6.72,6.72,0,0,0-.28,1c.45.37,1.16.86,1.67,1.21l1.13.8c.39-.29.77-.55,1.13-.8s1.22-.84,1.67-1.21a6.72,6.72,0,0,0-.28-1" />
            <path class="cls-1" d="M3,8.15a5.92,5.92,0,0,0-1-.27C1.64,8.32,1.15,9,.79,9.54s-.51.75-.79,1.14l.79,1.11c.36.53.85,1.23,1.22,1.68a6,6,0,0,0,1-.28l7.08-2.52Z" />
            <path class="cls-1" d="M8.13,3l2.52,7.08L13.17,3a7.47,7.47,0,0,0,.28-1C13,1.67,12.29,1.18,11.78.82L10.65,0,9.53.82C9,1.18,8.3,1.67,7.85,2a7.47,7.47,0,0,0,.28,1" />
          </g>
					<g class="cls-4">
            <path class="cls-1" d="M115.15,7.85a8.68,8.68,0,0,0-1,.27l-7.08,2.53,7.08,2.52c.33.11.66.2,1,.28.37-.45.86-1.16,1.22-1.68.24-.35.51-.74.79-1.12-.28-.39-.55-.77-.79-1.13s-.85-1.22-1.22-1.67" />
            <path class="cls-1" d="M109,18.31l-2.52-7.08L104,18.31a6.72,6.72,0,0,0-.28,1c.45.37,1.16.86,1.67,1.21s.75.52,1.13.8c.39-.29.77-.55,1.13-.8s1.22-.84,1.67-1.21a8.19,8.19,0,0,0-.28-1" />
            <path class="cls-1" d="M98.85,8.15a5.92,5.92,0,0,0-1-.27C97.48,8.32,97,9,96.63,9.54s-.51.75-.79,1.14c.29.39.55.77.79,1.11.36.53.85,1.23,1.22,1.68a7.08,7.08,0,0,0,1-.28l7.07-2.52Z" />
            <path class="cls-1" d="M104,3l2.52,7.08L109,3a7.47,7.47,0,0,0,.28-1c-.45-.37-1.16-.86-1.67-1.22L106.48,0l-1.12.79c-.52.36-1.23.85-1.68,1.22A7.47,7.47,0,0,0,104,3" />
          </g>
					<g class="cls-4">
            <path class="cls-1" d="M163,7.82a8.68,8.68,0,0,0-1,.27L155,10.62,162,13.14a7.08,7.08,0,0,0,1,.28c.37-.45.86-1.16,1.22-1.68.24-.35.51-.74.79-1.12-.28-.39-.55-.77-.79-1.13s-.85-1.22-1.22-1.67" />
            <path class="cls-1" d="M156.89,18.28l-2.52-7.08-2.52,7.08a7.08,7.08,0,0,0-.28,1c.45.37,1.16.86,1.67,1.21s.75.52,1.13.8c.39-.29.77-.55,1.13-.8s1.22-.84,1.67-1.21a8.73,8.73,0,0,0-.28-1" />
            <path class="cls-1" d="M146.74,8.12a8.68,8.68,0,0,0-1-.27c-.37.45-.86,1.16-1.22,1.67s-.51.74-.79,1.13c.29.39.55.77.79,1.12.36.52.85,1.23,1.22,1.68a7.08,7.08,0,0,0,1-.28l7.07-2.52Z" />
            <path class="cls-1" d="M151.85,3l2.52,7.08L156.89,3a7.08,7.08,0,0,0,.28-1c-.45-.37-1.16-.86-1.67-1.22L154.37,0l-1.12.79c-.52.36-1.23.85-1.68,1.22a7.08,7.08,0,0,0,.28,1" />
          </g>
					<g class="cls-4">
            <path class="cls-1" d="M19.33,55.79a8.68,8.68,0,0,0-1,.27l-7.12,2.53,7.09,2.52c.33.11.66.2,1,.28.37-.45.86-1.16,1.21-1.68.25-.35.52-.74.8-1.12-.29-.39-.55-.77-.79-1.13s-.85-1.22-1.22-1.67" />
            <path class="cls-1" d="M13.21,66.21l-2.52-7.08L8.17,66.21a7.47,7.47,0,0,0-.28,1c.45.37,1.16.86,1.67,1.22l1.13.8c.39-.29.77-.55,1.13-.8s1.22-.84,1.67-1.22a7.47,7.47,0,0,0-.28-1" />
            <path class="cls-1" d="M3,56.06a5.92,5.92,0,0,0-1-.27c-.37.45-.86,1.16-1.22,1.67S.29,58.2,0,58.59L.8,59.71c.36.52.85,1.22,1.22,1.67a6,6,0,0,0,1-.28l7.08-2.52Z" />
            <path class="cls-1" d="M8.14,51,10.66,58,13.21,51a7.47,7.47,0,0,0,.28-1c-.45-.37-1.16-.86-1.67-1.22l-1.13-.79-1.12.79c-.52.36-1.23.85-1.68,1.22a7.47,7.47,0,0,0,.28,1" />
          </g>
					<g class="cls-4">
            <path class="cls-1" d="M67.21,55.79a8.68,8.68,0,0,0-1,.27l-7.08,2.53,7.08,2.52c.33.11.66.2,1,.28.37-.45.86-1.16,1.22-1.68.24-.35.51-.74.79-1.12-.28-.39-.55-.77-.79-1.13s-.85-1.22-1.22-1.67" />
            <path class="cls-1" d="M61.09,66.21l-2.52-7.08-2.52,7.08a7.47,7.47,0,0,0-.28,1c.45.37,1.16.86,1.67,1.22l1.13.8c.39-.29.77-.55,1.13-.8s1.22-.84,1.67-1.22a7.47,7.47,0,0,0-.28-1" />
            <path class="cls-1" d="M50.93,56.06a5.92,5.92,0,0,0-1-.27c-.37.45-.86,1.16-1.22,1.67s-.51.74-.79,1.13l.79,1.12c.36.52.85,1.22,1.22,1.67a6,6,0,0,0,1-.28L58,58.58Z" />
            <path class="cls-1" d="M56.05,51,58.57,58,61.09,51a7.47,7.47,0,0,0,.28-1c-.45-.37-1.16-.86-1.67-1.22l-1.13-.79-1.12.79c-.52.36-1.23.85-1.68,1.22a7.47,7.47,0,0,0,.28,1" />
          </g>
					<g class="cls-4">
            <path class="cls-1" d="M115.15,55.79a8.68,8.68,0,0,0-1,.27l-7.08,2.53,7.08,2.52c.33.11.66.2,1,.28.37-.45.86-1.16,1.22-1.68.24-.35.51-.74.79-1.12-.28-.39-.55-.77-.79-1.13s-.85-1.22-1.22-1.67" />
            <path class="cls-1" d="M109,66.21l-2.52-7.08L104,66.21a7.47,7.47,0,0,0-.28,1c.45.37,1.16.86,1.67,1.22s.75.52,1.13.8c.39-.29.77-.55,1.13-.8s1.22-.84,1.67-1.22a9.34,9.34,0,0,0-.28-1" />
            <path class="cls-1" d="M98.85,56.06a5.92,5.92,0,0,0-1-.27c-.37.45-.86,1.16-1.22,1.67s-.51.74-.79,1.13c.29.39.55.77.79,1.12.36.52.85,1.22,1.22,1.67a7.08,7.08,0,0,0,1-.28l7.07-2.52Z" />
            <path class="cls-1" d="M104,51,106.48,58,109,51a7.47,7.47,0,0,0,.28-1c-.45-.37-1.16-.86-1.67-1.22l-1.13-.79-1.12.79c-.52.36-1.23.85-1.68,1.22a7.47,7.47,0,0,0,.28,1" />
          </g>
					<g class="cls-4">
            <path class="cls-1" d="M163.06,55.79a8.68,8.68,0,0,0-1,.27L155,58.59l7.08,2.52c.33.11.66.2,1,.28.37-.45.86-1.16,1.22-1.68.24-.35.51-.74.79-1.12-.28-.39-.55-.77-.79-1.13s-.85-1.22-1.22-1.67" />
            <path class="cls-1" d="M156.91,66.21l-2.52-7.08-2.52,7.08a7.47,7.47,0,0,0-.28,1c.45.37,1.16.86,1.67,1.22s.75.52,1.13.8c.39-.29.77-.55,1.13-.8s1.22-.84,1.67-1.22a7.47,7.47,0,0,0-.28-1" />
            <path class="cls-1" d="M146.76,56.06a5.92,5.92,0,0,0-1-.27c-.37.45-.86,1.16-1.22,1.67s-.51.74-.79,1.13c.29.39.55.77.79,1.12.36.52.85,1.22,1.22,1.67a7.08,7.08,0,0,0,1-.28l7.07-2.52Z" />
            <path class="cls-1" d="M151.87,51,154.39,58,156.91,51a7.47,7.47,0,0,0,.28-1c-.45-.37-1.16-.86-1.67-1.22s-.74-.51-1.13-.79l-1.12.79c-.52.36-1.23.85-1.68,1.22a7.47,7.47,0,0,0,.28,1" />
          </g>
					<g class="cls-4">
            <path class="cls-1" d="M19.33,103.7a8.68,8.68,0,0,0-1,.27l-7.12,2.52L18.3,109a7.08,7.08,0,0,0,1,.28c.37-.44.86-1.16,1.21-1.67s.52-.74.8-1.12c-.29-.39-.55-.77-.79-1.13-.36-.51-.85-1.22-1.22-1.67" />
            <path class="cls-1" d="M13.21,114.12,10.69,107l-2.52,7.08a7.47,7.47,0,0,0-.28,1c.45.37,1.16.86,1.67,1.21l1.13.8c.39-.29.77-.55,1.13-.8s1.22-.84,1.67-1.21a7.47,7.47,0,0,0-.28-1" />
            <path class="cls-1" d="M3,104a8.68,8.68,0,0,0-1-.27c-.37.45-.86,1.16-1.22,1.67-.24.36-.51.74-.79,1.13l.79,1.12c.36.52.85,1.23,1.22,1.68A6,6,0,0,0,3,109l7.08-2.52Z" />
            <path class="cls-1" d="M8.14,98.85l2.52,7.08,2.55-7.08a7.47,7.47,0,0,0,.28-1c-.45-.37-1.16-.86-1.67-1.23s-.74-.5-1.13-.78l-1.12.78c-.52.37-1.23.86-1.68,1.23a7.47,7.47,0,0,0,.28,1" />
          </g>
					<g class="cls-4">
            <path class="cls-1" d="M19.33,151.62c-.34.08-.67.17-1,.28l-7.12,2.52,7.09,2.52a7.08,7.08,0,0,0,1,.28c.37-.45.86-1.16,1.21-1.68.25-.35.52-.74.8-1.11-.29-.39-.55-.78-.79-1.14s-.85-1.22-1.22-1.67" />
            <path class="cls-1" d="M13.21,162.05,10.69,155l-2.52,7.08a7.47,7.47,0,0,0-.28,1c.45.37,1.16.86,1.67,1.21l1.13.8c.39-.29.77-.55,1.13-.8s1.22-.84,1.67-1.21a7.47,7.47,0,0,0-.28-1" />
            <path class="cls-1" d="M3,151.89a8.68,8.68,0,0,0-1-.27c-.37.45-.86,1.16-1.22,1.67S.29,154,0,154.42l.79,1.12c.36.52.85,1.23,1.22,1.68a6,6,0,0,0,1-.28l7.08-2.52Z" />
            <path class="cls-1" d="M8.14,146.77l2.52,7.08,2.55-7.08a6.72,6.72,0,0,0,.28-1c-.45-.37-1.16-.86-1.67-1.22l-1.13-.79-1.12.79c-.52.36-1.23.85-1.68,1.22a6.72,6.72,0,0,0,.28,1" />
          </g>
					<g class="cls-4">
            <path class="cls-1" d="M67.21,103.7a8.68,8.68,0,0,0-1,.27l-7.08,2.53L66.21,109c.33.11.66.2,1,.28.37-.45.86-1.16,1.22-1.68.24-.35.51-.74.79-1.12-.28-.39-.55-.77-.79-1.13-.36-.51-.85-1.22-1.22-1.67" />
            <path class="cls-1" d="M61.09,114.12,58.57,107l-2.52,7.08a7.47,7.47,0,0,0-.28,1c.45.37,1.16.86,1.67,1.21l1.13.8c.39-.29.77-.55,1.13-.8s1.22-.84,1.67-1.21a7.47,7.47,0,0,0-.28-1" />
            <path class="cls-1" d="M50.93,104a8.68,8.68,0,0,0-1-.27c-.37.45-.86,1.16-1.22,1.67-.24.36-.51.74-.79,1.13l.79,1.12c.36.52.85,1.23,1.22,1.68a6,6,0,0,0,1-.28L58,106.49Z" />
            <path class="cls-1" d="M56.05,98.85l2.52,7.08,2.52-7.09a7.47,7.47,0,0,0,.28-1c-.45-.37-1.16-.86-1.67-1.22l-1.13-.79-1.12.79c-.52.36-1.23.85-1.68,1.22a7.47,7.47,0,0,0,.28,1" />
          </g>
					<g class="cls-4">
            <path class="cls-1" d="M115.15,103.7a8.68,8.68,0,0,0-1,.27l-7.08,2.53,7.08,2.52c.33.11.66.2,1,.28.37-.45.86-1.16,1.22-1.68.24-.35.51-.74.79-1.12-.28-.39-.55-.77-.79-1.13-.36-.51-.85-1.22-1.22-1.67" />
            <path class="cls-1" d="M109,114.12,106.48,107,104,114.12a7.47,7.47,0,0,0-.28,1c.45.37,1.16.86,1.67,1.21s.75.52,1.13.8c.39-.29.77-.55,1.13-.8s1.22-.84,1.67-1.21a9.34,9.34,0,0,0-.28-1" />
            <path class="cls-1" d="M98.85,104a8.68,8.68,0,0,0-1-.27c-.37.45-.86,1.16-1.22,1.67-.24.36-.51.74-.79,1.13.29.39.55.77.79,1.12.36.52.85,1.23,1.22,1.68a7.08,7.08,0,0,0,1-.28l7.07-2.52Z" />
            <path class="cls-1" d="M104,98.85l2.52,7.08L109,98.84a7.47,7.47,0,0,0,.28-1c-.45-.37-1.16-.86-1.67-1.22l-1.13-.79-1.12.79c-.52.36-1.23.85-1.68,1.22a7.47,7.47,0,0,0,.28,1" />
          </g>
					<g class="cls-4">
            <path class="cls-1" d="M163.06,103.7a8.68,8.68,0,0,0-1,.27L155,106.5l7.08,2.52c.33.11.66.2,1,.28.37-.45.86-1.16,1.22-1.68.24-.35.51-.74.79-1.12-.28-.39-.55-.77-.79-1.13-.36-.51-.85-1.22-1.22-1.67" />
            <path class="cls-1" d="M156.91,114.12,154.39,107l-2.52,7.08a7.47,7.47,0,0,0-.28,1c.45.37,1.16.86,1.67,1.21s.75.52,1.13.8c.39-.29.77-.55,1.13-.8s1.22-.84,1.67-1.21a7.47,7.47,0,0,0-.28-1" />
            <path class="cls-1" d="M146.76,104a8.68,8.68,0,0,0-1-.27c-.37.45-.86,1.16-1.22,1.67-.24.36-.51.74-.79,1.13.29.39.55.77.79,1.12.36.52.85,1.23,1.22,1.68a7.08,7.08,0,0,0,1-.28l7.07-2.52Z" />
            <path class="cls-1" d="M151.87,98.85l2.52,7.08,2.52-7.08a7.47,7.47,0,0,0,.28-1c-.45-.37-1.16-.86-1.67-1.23s-.74-.5-1.13-.78l-1.12.78c-.52.37-1.23.86-1.68,1.23a7.47,7.47,0,0,0,.28,1" />
          </g>
					<g class="cls-4">
            <path class="cls-1" d="M67.21,151.61a8.68,8.68,0,0,0-1,.27l-7.08,2.52,7.08,2.52a7.08,7.08,0,0,0,1,.28c.37-.45.86-1.16,1.22-1.68l.79-1.12c-.28-.39-.55-.76-.79-1.13s-.85-1.22-1.22-1.67" />
            <path class="cls-1" d="M61.09,162,58.57,155,56.05,162a6.72,6.72,0,0,0-.28,1c.45.36,1.16.85,1.67,1.2l1.13.8c.39-.29.77-.55,1.13-.8s1.22-.84,1.67-1.2a6.72,6.72,0,0,0-.28-1" />
            <path class="cls-1" d="M50.93,151.85a5.92,5.92,0,0,0-1-.27c-.37.45-.86,1.16-1.22,1.67s-.51.74-.79,1.13l.79,1.12c.36.52.85,1.23,1.22,1.68a8.73,8.73,0,0,0,1-.28L58,154.38Z" />
            <path class="cls-1" d="M56.05,146.77l2.52,7.08,2.52-7.09a6.72,6.72,0,0,0,.28-1c-.45-.37-1.16-.86-1.67-1.22l-1.13-.79-1.12.79c-.52.36-1.23.85-1.68,1.22a6.72,6.72,0,0,0,.28,1" />
          </g>
					<g class="cls-4">
            <path class="cls-1" d="M115.15,151.61a8.68,8.68,0,0,0-1,.27l-7.08,2.52,7.08,2.52a7.08,7.08,0,0,0,1,.28c.37-.45.86-1.16,1.22-1.68l.79-1.12c-.28-.39-.55-.76-.79-1.13s-.85-1.22-1.22-1.67" />
            <path class="cls-1" d="M109,162,106.48,155,104,162a6.72,6.72,0,0,0-.28,1c.45.36,1.16.85,1.67,1.2s.75.52,1.13.8c.39-.29.77-.55,1.13-.8s1.22-.84,1.67-1.2a8.19,8.19,0,0,0-.28-1" />
            <path class="cls-1" d="M98.85,151.85a5.92,5.92,0,0,0-1-.27c-.37.45-.86,1.16-1.22,1.67s-.51.74-.79,1.13c.29.39.55.77.79,1.12.36.52.85,1.23,1.22,1.68.34-.08.67-.17,1-.28l7.07-2.52Z" />
            <path class="cls-1" d="M104,146.77l2.52,7.08,2.52-7.09a6.72,6.72,0,0,0,.28-1c-.45-.37-1.16-.86-1.67-1.22l-1.13-.79-1.12.79c-.52.36-1.23.85-1.68,1.22a6.72,6.72,0,0,0,.28,1" />
          </g>
					<g class="cls-4">
            <path class="cls-1" d="M163,151.61a8.68,8.68,0,0,0-1,.27L155,154.41l7.08,2.52a7.08,7.08,0,0,0,1,.28c.37-.45.86-1.16,1.22-1.68.24-.35.51-.74.79-1.12-.28-.39-.55-.77-.79-1.13s-.85-1.22-1.22-1.67" />
            <path class="cls-1" d="M156.89,162,154.37,155,151.85,162a7.08,7.08,0,0,0-.28,1c.45.37,1.16.86,1.67,1.21s.75.52,1.13.8c.39-.29.77-.55,1.13-.8s1.22-.84,1.67-1.21a8.73,8.73,0,0,0-.28-1" />
            <path class="cls-1" d="M146.74,151.85a8.68,8.68,0,0,0-1-.27c-.37.45-.86,1.16-1.22,1.67s-.51.74-.79,1.13c.29.39.55.77.79,1.12.36.52.85,1.23,1.22,1.68a7.08,7.08,0,0,0,1-.28l7.07-2.52Z" />
            <path class="cls-1" d="M151.85,146.78l2.52,7.08,2.52-7.09a7.08,7.08,0,0,0,.28-1c-.45-.37-1.16-.86-1.67-1.22l-1.13-.79-1.12.79c-.52.36-1.23.85-1.68,1.22a7.08,7.08,0,0,0,.28,1" />
          </g>
        </g>
    </g>
</svg>