<svg xmlns="http://www.w3.org/2000/svg" xmlns:xlink="http://www.w3.org/1999/xlink" viewBox="0 0 21.3 21.29">
    <defs>
        <style>
        path {
						fill: #00b1af;
        }
        .cls-1 {
            fill: none;
        }
        .cls-2 {
            clip-path: url(#clip-path);
        }
        </style>
        <clipPath id="clip-path" transform="translate(-586.77 -143.15)">
            <rect class="cls-1" width="2387.29" height="841.89" />
        </clipPath>
    </defs>
    <title>Ресурс 2</title>
    <g id="Слой_2" data-name="Слой 2">
        <g id="Слой_1-2" data-name="Слой 1">
            <g class="cls-2">
                <path d="M606.09,151a8.68,8.68,0,0,0-1,.27L598,153.8l7.09,2.52a7.08,7.08,0,0,0,1,.28c.37-.45.86-1.16,1.21-1.68.25-.35.52-.74.8-1.12-.29-.39-.55-.77-.79-1.13s-.85-1.22-1.22-1.67" transform="translate(-586.77 -143.15)" />
                <path d="M600,161.43l-2.52-7.08-2.52,7.08a7.08,7.08,0,0,0-.28,1c.45.37,1.16.86,1.67,1.21l1.13.8c.39-.29.77-.55,1.13-.8s1.22-.84,1.67-1.21a7.08,7.08,0,0,0-.28-1" transform="translate(-586.77 -143.15)" />
                <path d="M589.78,151.27a8.68,8.68,0,0,0-1-.27c-.37.45-.86,1.16-1.22,1.67s-.51.74-.79,1.13l.79,1.12c.36.52.85,1.23,1.22,1.68a7.08,7.08,0,0,0,1-.28l7.08-2.52Z" transform="translate(-586.77 -143.15)" />
                <path d="M594.9,146.17l2.52,7.08,2.55-7.09a7.08,7.08,0,0,0,.28-1c-.45-.37-1.16-.86-1.67-1.22l-1.13-.79-1.12.79c-.52.36-1.23.85-1.68,1.22a7.08,7.08,0,0,0,.28,1" transform="translate(-586.77 -143.15)" />
            </g>
        </g>
    </g>
</svg>